<svg xmlns="http://www.w3.org/2000/svg" viewBox="0 0 64 64"><defs><linearGradient id="a" x1="32" x2="32" y1="20" y2="16" gradientUnits="userSpaceOnUse"><stop offset="0" stop-color="#838383"/><stop offset="1" stop-color="#a1a1a1"/></linearGradient><linearGradient id="b" x1="32" x2="32" y1="18" y2="28" gradientUnits="userSpaceOnUse"><stop offset="0" stop-color="#d6d6d6"/><stop offset="1" stop-color="#a1a1a1"/></linearGradient><linearGradient id="c" x1="32" x2="32" y1="28" y2="26" gradientUnits="userSpaceOnUse"><stop offset="0" stop-color="#6e6e6e"/><stop offset="1" stop-color="#8c8c8c"/></linearGradient><linearGradient id="d" x1="32" x2="32" y1="61" y2="2.8" gradientUnits="userSpaceOnUse"><stop offset="0" stop-color="#009e77"/><stop offset="1" stop-color="#00d291"/></linearGradient></defs><g data-name="Layer 2"><path fill="url(#a)" d="M32,16a1,1,0,0,0-1,1v2a1,1,0,0,0,2,0V17A1,1,0,0,0,32,16Z"/><path fill="url(#b)" d="M32.08,18h-.16A7.93,7.93,0,0,0,24,25.92V27a1,1,0,0,0,1,1H39a1,1,0,0,0,1-1V25.92A7.93,7.93,0,0,0,32.08,18Z"/><rect width="20" height="2" x="22" y="26" fill="url(#c)"/><path fill="url(#d)" d="M32,2.8A21.09,21.09,0,0,0,10.93,23.87c0,18.3,19.57,36.12,20.4,36.87a1,1,0,0,0,1.34,0c.83-.75,20.4-18.57,20.4-36.87A21.09,21.09,0,0,0,32,2.8ZM32,39A15,15,0,1,1,47,24,15,15,0,0,1,32,39Z"/></g></svg>