<svg xmlns="http://www.w3.org/2000/svg" viewBox="0 0 468.09 468.09" id="turkey-legs"><ellipse cx="234.045" cy="234.045" fill="#fff" rx="232.49" ry="232.5"></ellipse><path fill="#bfc3cf" d="M388.785 60.541c-17.003 25.98-15.207 50.728-3.678 74.983 16.32 31.162 70.741 153.454-27.234 241.083 0 0-115.501 105.947-234.985-5.576 1.387-.356-45.159-38.155-83.822-10.326 41.468 63.709 113.298 105.84 194.978 105.84 128.401 0 232.49-104.094 232.49-232.5.001-68.976-30.044-130.925-77.749-173.504z"></path><path d="M234.045 468.045c-125.778 2.6-236.59-108.227-233.99-234-2.6-125.778 108.217-236.599 233.99-234 125.778-2.6 236.59 108.227 233.99 234 2.601 125.778-108.217 236.599-233.99 234zm0-465c-127.369 0-230.99 103.626-230.99 231s103.622 231 230.99 231 230.99-103.626 230.99-231-103.621-231-230.99-231z"></path><path fill="#90d628" d="M314.338 107.819c4.839-2.573 9.108-6.187 12.223-10.82 5.701-8.48 9.419-20.31-13.847-20.666 0 0 27.289-30.458-11.912-22.247 0 0-7.319-42.95-20.254.044l-10.249 30.543c5.95-39.659.341-53.702-4.247-54.633-5.355-1.662-9.547 9.396-11.696 16.519l-.07.143c-5.853-16.082-15.098-27.48-20.649-25.46-5.551 2.02-5.306 16.695.547 32.777-6.194-3.769-16.686-10.026-19.817-5.166-2.916 3.663.321 17.809 31.863 44.582-.235-.2-.535-.314-.797-.49L218.842 76.59c-37.543-24.62-15.543 12.986-15.543 12.986-35.308 18.908 5.174 24.699 5.174 24.699-17.594 15.229-7.141 21.901 2.676 24.733 20.414 4.412 33.529-9.158 58.1 10.691l19.677-7.162c3.553-20.44 17.658-30.594 25.412-34.718z"></path><path fill="#6da52e" d="M224.305 137.391c-8.695-2.508-17.888-8.028-7.654-19.837 1.899-2.192.881-5.614-1.912-6.396-9.305-2.605-22.469-8.917-1.617-21.321 1.804-1.073 2.482-3.349 1.532-5.222-1.805-3.558-4.351-9.218-4.584-13.241-24.97-12.909-6.772 18.202-6.772 18.202-35.308 18.908 5.174 24.699 5.174 24.699-17.594 15.229-7.141 21.901 2.676 24.733 20.414 4.412 33.529-9.158 58.1 10.691l10.347-3.766c-22.786-16.656-35.67-4.302-55.29-8.542z"></path><path fill="#6da52e" d="M312.714 76.333s27.289-30.458-11.912-22.247c0 0-6.057-35.53-16.887-9.59 2.407 3.231 4.095 9.203 4.999 13.09.476 2.045 2.458 3.353 4.53 3.015 23.947-3.902 17.919 9.396 12.466 17.373-1.637 2.394-.217 5.67 2.647 6.128 15.43 2.468 11.936 12.606 6.887 20.116-12.305 15.86-30.114 14.679-36.866 42.085l10.347-3.766c6.065-30.999 24.834-29.035 37.636-45.537 5.701-8.481 9.419-20.311-13.847-20.667z"></path><path fill="#fff" d="M262.487 68.841c-.763-6.039-1.561-11.087-2.877-15.093-.405-1.233.034-2.584 1.12-3.295l.183-.12c1.898-1.243 4.406.136 4.377 2.404-.018 1.394-.01 2.891.025 4.496l-.082 11.441c-.013 1.717-2.531 1.871-2.746.167z" opacity=".5"></path><path fill="#6da52e" d="M292.576 83.85c-6.422 5.217-14.594 15.225-18.913 33.852-4.154-20.157-12.743-30.789-19.432-36.223-1.687-1.371-3.934.781-2.644 2.53 9.922 13.455 14.111 27.425 15.826 35.519-15.099-11.23-27.641-13.604-35.839-13.474-2.173.034-2.512 3.127-.399 3.638 24.914 6.025 40.293 21.646 40.293 21.646l3.016-2.293 3.784-.183s1.74-21.853 16.953-42.483c1.289-1.748-.958-3.9-2.645-2.529z" opacity=".5"></path><path fill="#90d628" d="M184.618 151.91c5.427-.763 10.675-2.698 15.186-5.987 8.257-6.018 15.797-15.864-5.944-24.156 0 0 36.06-19.288-3.585-24.979 0 0 7.812-42.863-19.047-6.886l-20.076 25.196c19.155-35.232 18.687-50.346 14.694-52.791-4.463-3.394-12.185 5.564-16.64 11.522l-.114.11c0-17.114-4.789-30.987-10.696-30.987S127.7 56.825 127.7 73.939c-4.531-5.66-12.251-15.128-16.855-11.633-3.993 2.445-5.789 16.845 14.694 52.791-.153-.268-.396-.478-.581-.733l-19.394-24.462c-26.859-35.976-19.047 6.886-19.047 6.886-39.645 5.692-3.585 24.979-3.585 24.979-21.741 8.293-14.201 18.138-5.944 24.156 17.674 11.128 34.639 2.862 50.94 29.918h20.939c10.328-17.991 27.054-22.708 35.751-23.931z"></path><path fill="#6da52e" d="M89.902 148.904c-7.313-5.33-14.063-13.662-.408-21.259 2.534-1.41 2.748-4.974.391-6.664-7.852-5.631-18.064-16.064 5.773-20.589 2.063-.392 3.478-2.298 3.226-4.383-.48-3.961-.936-10.151.221-14.01-19.05-20.671-12.59 14.788-12.59 14.788-39.645 5.692-3.585 24.979-3.585 24.979-21.741 8.293-14.201 18.138-5.944 24.156 17.674 11.128 34.639 2.862 50.94 29.918h11.012c-15.718-23.443-32.05-16.241-49.036-26.936z"></path><path fill="#6da52e" d="M193.861 121.767s36.06-19.288-3.585-24.979c0 0 6.46-35.459-12.589-14.788 1.157 3.859.701 10.049.221 14.01-.252 2.084 1.163 3.991 3.226 4.383 23.837 4.524 13.625 14.958 5.773 20.589-2.357 1.69-2.143 5.254.391 6.664 13.655 7.597 6.905 15.929-.408 21.259-16.987 10.695-33.319 3.493-49.035 26.937h11.012c16.301-27.056 33.266-18.79 50.94-29.918 8.255-6.019 15.795-15.865-5.946-24.157z"></path><path fill="#fff" d="M127.709 97.547c-1.348-5.935-2.325-10.952-2.458-15.167-.041-1.297-.916-2.417-2.179-2.714l-.213-.05c-2.209-.519-4.094 1.634-3.291 3.756.494 1.304.998 2.713 1.514 4.233l3.99 10.723c.598 1.611 3.017.894 2.637-.781zm21.516 0c1.348-5.935 2.325-10.952 2.459-15.167.041-1.297.916-2.417 2.179-2.714l.213-.05c2.209-.519 4.094 1.634 3.291 3.756a129.334 129.334 0 0 0-1.514 4.233l-3.99 10.723c-.6 1.611-3.018.894-2.638-.781z" opacity=".5"></path><path fill="#6da52e" d="M172.366 121.943c-7.819 2.706-18.921 9.315-29.35 25.342 2.99-20.363-1.445-33.29-5.872-40.685-1.117-1.865-3.964-.612-3.35 1.473 4.722 16.037 3.88 30.598 2.724 38.79-10.347-15.717-21.321-22.238-29.07-24.92-2.054-.711-3.43 2.079-1.62 3.282 21.351 14.183 30.46 34.123 30.46 34.123l3.618-1.123 3.618 1.123s9.109-19.939 30.46-34.123c1.812-1.203.436-3.993-1.618-3.282z" opacity=".5"></path><ellipse cx="179.292" cy="89.617" fill="#feac01" rx="38.593" ry="38.5"></ellipse><ellipse cx="179.292" cy="89.617" fill="#fff" opacity=".5" rx="34.5" ry="34.417"></ellipse><ellipse cx="179.292" cy="89.617" fill="#ffcf00" rx="30.994" ry="30.919"></ellipse><path fill="#fd8a01" d="M179.292 80.753a1.5 1.5 0 0 1-1.5-1.5V64.31a1.5 1.5 0 1 1 3 0v14.943a1.5 1.5 0 0 1-1.5 1.5zm-8.998 5.182a1.49 1.49 0 0 1-.747-.2l-12.973-7.473a1.5 1.5 0 1 1 1.497-2.6l12.973 7.473c1.331.706.724 2.857-.75 2.8zm-12.97 17.835c-1.474.056-2.08-2.094-.75-2.8l12.973-7.472a1.5 1.5 0 0 1 1.497 2.6l-12.973 7.472a1.49 1.49 0 0 1-.747.2zm21.968 12.655a1.5 1.5 0 0 1-1.5-1.5V99.98a1.5 1.5 0 1 1 3 0v14.944a1.5 1.5 0 0 1-1.5 1.501zm21.969-12.655a1.49 1.49 0 0 1-.747-.2l-12.973-7.472a1.5 1.5 0 1 1 1.497-2.6l12.973 7.472a1.5 1.5 0 0 1-.75 2.8zM188.29 85.935c-1.474.056-2.08-2.094-.75-2.8l12.973-7.473a1.5 1.5 0 0 1 1.497 2.6l-12.973 7.473c-.235.136-.493.2-.747.2zM171.471 77.601a1.502 1.502 0 0 1-1.3-.749l-2.457-4.245a1.5 1.5 0 1 1 2.597-1.502l2.457 4.245c.594.961-.181 2.279-1.297 2.251zm-7.824 13.516h-4.914a1.5 1.5 0 1 1 0-3h4.914a1.5 1.5 0 1 1 0 3zm5.365 17.761c-1.117.028-1.891-1.289-1.297-2.251l2.457-4.245a1.5 1.5 0 1 1 2.597 1.502l-2.457 4.245a1.5 1.5 0 0 1-1.3.749zm20.561 0a1.502 1.502 0 0 1-1.3-.749l-2.457-4.245a1.5 1.5 0 1 1 2.597-1.502l2.457 4.245c.593.962-.181 2.279-1.297 2.251zm10.278-17.761h-4.914a1.5 1.5 0 1 1 0-3h4.914a1.5 1.5 0 1 1 0 3zm-12.738-13.516c-1.117.028-1.891-1.289-1.297-2.251l2.457-4.245a1.5 1.5 0 1 1 2.597 1.502l-2.457 4.245a1.5 1.5 0 0 1-1.3.749z"></path><ellipse cx="179.292" cy="89.617" fill="#fff" opacity=".5" rx="5.847" ry="5.833"></ellipse><path fill="#fd4cc8" d="M251.193 140.752c-2.524 3.351-6.806 4.862-10.894 3.876-17.051-4.114-41.75-20.805-41.75-40.77 0-19.965 24.699-36.656 41.75-40.77 4.088-.986 8.371.525 10.894 3.876 16.465 21.863 16.465 51.925 0 73.788z"></path><path fill="#fff" d="M212.171 112.553c-1.779.679-3.788-.296-4.294-2.125-.699-2.523-1.04-5.113-.948-7.744.102-2.917.733-5.746 1.785-8.461.513-1.323 2.049-1.927 3.308-1.263a2.34 2.34 0 0 1 1.234 2.32c-.83 7.585-.11 10.924.745 12.991a3.239 3.239 0 0 1-1.83 4.282z" opacity=".5"></path><path fill="#ff8ede" d="M228.527 108.127c.917-5.258-1.797-9.498-4.221-11.581-9.066-7.793-7.338-21.745 8.862-21.247 4.425.136 8.94 1.423 11.376 4.041 24.442 26.26-1.283 51.277.243 49.459-5.105 6.086-17.047 7.498-24.214 2.545-6.252-4.321-2.083-11.301 2.696-15.163 2.718-2.196 4.47-4.881 5.258-8.054z"></path><ellipse cx="241.333" cy="104.72" fill="#fd4cc8" rx="2.602" ry="3.737" transform="rotate(-89.037 241.32 104.716)"></ellipse><ellipse cx="239.377" cy="94.06" fill="#fd4cc8" rx="2.602" ry="3.737" transform="rotate(-89.037 239.364 94.058)"></ellipse><ellipse cx="235.285" cy="83.363" fill="#fd4cc8" rx="2.602" ry="3.737" transform="rotate(-89.037 235.273 83.36)"></ellipse><ellipse cx="239.019" cy="115.302" fill="#fd4cc8" rx="2.602" ry="3.737" transform="rotate(-89.037 239.007 115.298)"></ellipse><ellipse cx="234.57" cy="125.845" fill="#fd4cc8" rx="2.602" ry="3.737" transform="rotate(-89.037 234.558 125.84)"></ellipse><ellipse cx="200.699" cy="136.907" fill="#feac01" rx="33.306" ry="33.285"></ellipse><ellipse cx="200.699" cy="136.907" fill="#fff" opacity=".5" rx="29.774" ry="29.755"></ellipse><ellipse cx="200.699" cy="136.907" fill="#ffcf00" rx="26.748" ry="26.731"></ellipse><path fill="#fd8a01" d="M200.699 129.447a1.5 1.5 0 0 1-1.5-1.5v-12.92a1.5 1.5 0 1 1 3 0v12.92a1.5 1.5 0 0 1-1.5 1.5zm-7.766 4.48c-.254 0-.512-.064-.748-.201l-11.196-6.459a1.5 1.5 0 1 1 1.499-2.598l11.196 6.459c1.329.705.722 2.856-.751 2.799zm-11.193 15.42c-1.474.057-2.08-2.093-.751-2.799l11.196-6.46a1.499 1.499 0 1 1 1.499 2.598l-11.196 6.46a1.495 1.495 0 0 1-.748.201zm18.959 10.94a1.5 1.5 0 0 1-1.5-1.5v-12.92a1.5 1.5 0 1 1 3 0v12.92a1.5 1.5 0 0 1-1.5 1.5zm18.958-10.94c-.254 0-.512-.064-.748-.201l-11.195-6.46a1.5 1.5 0 1 1 1.499-2.598l11.195 6.46c1.328.733.739 2.834-.751 2.799zm-11.192-15.42c-1.474.057-2.08-2.094-.751-2.799l11.195-6.459a1.499 1.499 0 1 1 1.499 2.598l-11.195 6.459a1.495 1.495 0 0 1-.748.201zM193.949 126.722a1.498 1.498 0 0 1-1.3-.75l-2.12-3.67a1.5 1.5 0 1 1 2.597-1.5l2.12 3.67c.593.961-.18 2.278-1.297 2.25zm-6.752 11.685h-4.24a1.5 1.5 0 1 1 0-3h4.24a1.5 1.5 0 1 1 0 3zm4.629 15.356c-1.117.029-1.89-1.289-1.297-2.25l2.12-3.67a1.5 1.5 0 1 1 2.597 1.5l-2.12 3.67c-.277.481-.782.75-1.3.75zm17.745 0a1.498 1.498 0 0 1-1.3-.75l-2.12-3.67a1.5 1.5 0 1 1 2.597-1.5l2.12 3.67c.593.961-.18 2.278-1.297 2.25zm8.87-15.356H214.2a1.5 1.5 0 1 1 0-3h4.241a1.5 1.5 0 1 1 0 3zm-10.993-11.685c-1.117.029-1.89-1.289-1.297-2.25l2.12-3.67a1.499 1.499 0 1 1 2.597 1.5l-2.12 3.67c-.277.481-.782.75-1.3.75z"></path><ellipse cx="200.699" cy="136.907" fill="#fff" opacity=".5" rx="5.046" ry="5.043"></ellipse><path fill="#90d628" d="M364.298 354.309c4.839 2.573 9.108 6.187 12.223 10.82 5.701 8.48 9.419 20.31-13.847 20.666 0 0 27.289 30.458-11.912 22.247 0 0-7.319 42.95-20.254-.044l-10.249-30.543c5.95 39.659.341 53.702-4.247 54.633-5.355 1.662-9.547-9.396-11.696-16.519l-.07-.143c-5.853 16.082-15.098 27.48-20.649 25.46-5.551-2.02-5.306-16.695.547-32.777-6.194 3.769-16.686 10.026-19.817 5.166-2.916-3.663.321-17.809 31.863-44.582-.235.2-.535.314-.797.49l-26.591 16.354c-37.543 24.62-15.543-12.986-15.543-12.986-35.308-18.908 5.174-24.699 5.174-24.699-17.594-15.229-7.141-21.901 2.676-24.733 20.414-4.412 33.529 9.158 58.1-10.69l19.677 7.162c3.553 20.44 17.657 30.594 25.412 34.718z"></path><path fill="#6da52e" d="M274.265 324.738c-8.695 2.508-17.888 8.028-7.654 19.837 1.899 2.192.881 5.614-1.912 6.396-9.305 2.605-22.469 8.917-1.617 21.321 1.804 1.073 2.482 3.349 1.532 5.222-1.805 3.558-4.351 9.218-4.584 13.241-24.97 12.909-6.772-18.202-6.772-18.202-35.308-18.908 5.174-24.699 5.174-24.699-17.594-15.229-7.141-21.901 2.676-24.733 20.414-4.412 33.529 9.158 58.1-10.69l10.348 3.766c-22.787 16.654-35.671 4.301-55.291 8.541z"></path><path fill="#6da52e" d="M362.673 385.796s27.289 30.458-11.912 22.247c0 0-6.057 35.53-16.887 9.59 2.407-3.231 4.095-9.203 4.999-13.09.476-2.045 2.458-3.353 4.53-3.015 23.947 3.902 17.919-9.395 12.466-17.373-1.637-2.394-.217-5.67 2.647-6.128 15.43-2.468 11.936-12.606 6.887-20.116-12.305-15.86-30.114-14.679-36.866-42.085l10.348 3.766c6.065 30.999 24.834 29.035 37.636 45.537 5.7 8.48 9.419 20.31-13.848 20.667z"></path><path fill="#fff" d="M312.447 393.288c-.763 6.039-1.561 11.087-2.877 15.093-.405 1.233.034 2.584 1.12 3.295l.183.12c1.898 1.243 4.406-.136 4.377-2.404-.018-1.394-.01-2.891.025-4.496l-.082-11.441c-.013-1.718-2.531-1.871-2.746-.167z" opacity=".5"></path><g fill="#6da52e" opacity=".5"><path d="M281.134 352.436c24.914-6.025 40.293-21.646 40.293-21.646l5.26 3.998c-19.246 18.007-35.322 21.442-45.154 21.286-2.173-.034-2.512-3.127-.399-3.638z"></path><path d="M301.546 378.119c15.213-20.631 16.953-42.483 16.953-42.483l6.6-.319c-3.169 26.166-13.276 39.131-20.908 45.332-1.687 1.371-3.935-.781-2.645-2.53z"></path><path d="M345.18 375.748c-15.213-20.631-16.953-42.483-16.953-42.483l-6.6-.319c3.169 26.166 13.276 39.131 20.908 45.332 1.688 1.371 3.935-.78 2.645-2.53z"></path></g><path fill="#90d628" d="M229.416 340.234c5.427.763 10.675 2.698 15.186 5.987 8.257 6.018 15.797 15.864-5.944 24.156 0 0 36.06 19.288-3.585 24.979 0 0 7.812 42.863-19.047 6.886l-20.076-25.195c19.155 35.232 18.687 50.346 14.694 52.791-4.463 3.394-12.185-5.564-16.64-11.522l-.114-.11c0 17.114-4.789 30.987-10.696 30.987s-10.696-13.873-10.696-30.987c-4.531 5.66-12.251 15.128-16.855 11.633-3.993-2.445-5.789-16.845 14.694-52.791-.153.268-.396.478-.581.733l-19.394 24.462c-26.859 35.976-19.047-6.886-19.047-6.886-39.645-5.692-3.585-24.979-3.585-24.979-21.741-8.293-14.201-18.138-5.944-24.156 17.674-11.128 34.639-2.862 50.94-29.918h20.939c10.328 17.99 27.054 22.707 35.751 23.93z"></path><path fill="#6da52e" d="M134.699 343.241c-7.313 5.33-14.063 13.662-.408 21.259 2.534 1.41 2.748 4.974.391 6.664-7.852 5.631-18.064 16.064 5.773 20.589 2.063.392 3.478 2.298 3.226 4.383-.48 3.961-.936 10.151.221 14.01-19.049 20.671-12.589-14.788-12.589-14.788-39.645-5.692-3.585-24.979-3.585-24.979-21.741-8.293-14.201-18.138-5.944-24.156 17.674-11.128 34.639-2.862 50.94-29.918h11.012c-15.718 23.442-32.05 16.24-49.037 26.936z"></path><path fill="#6da52e" d="M238.659 370.378s36.06 19.288-3.585 24.979c0 0 6.46 35.459-12.589 14.788 1.157-3.859.701-10.049.221-14.01-.252-2.084 1.163-3.991 3.226-4.383 23.837-4.524 13.625-14.958 5.773-20.589-2.357-1.69-2.143-5.254.391-6.664 13.655-7.597 6.905-15.929-.408-21.259-16.987-10.695-33.319-3.493-49.035-26.937h11.012c16.301 27.056 33.266 18.79 50.94 29.918 8.255 6.019 15.795 15.864-5.946 24.157z"></path><path fill="#fff" d="M172.507 394.597c-1.348 5.935-2.325 10.952-2.459 15.167-.041 1.297-.916 2.417-2.179 2.714l-.213.05c-2.209.519-4.094-1.634-3.291-3.756.494-1.304.998-2.713 1.514-4.233l3.99-10.723c.599-1.611 3.018-.894 2.638.781z" opacity=".5"></path><g fill="#6da52e" opacity=".5"><path d="M150.627 366.919c21.351-14.183 30.46-34.123 30.46-34.123l6.311 1.958c-11.926 23.504-25.858 32.23-35.151 35.447-2.055.711-3.431-2.079-1.62-3.282z"></path><path d="M178.592 384.071c7.239-24.59 1.401-45.72 1.401-45.72l6.093-2.557c5.971 25.672.908 41.312-4.144 49.749-1.116 1.866-3.963.614-3.35-1.472z"></path><path d="M218.784 366.919c-21.351-14.183-30.46-34.123-30.46-34.123l-6.311 1.958c11.926 23.504 25.858 32.23 35.151 35.447 2.054.711 3.43-2.079 1.62-3.282z"></path></g><ellipse cx="232.516" cy="386.573" fill="#feac01" rx="38.593" ry="38.5" transform="rotate(-19.999 232.535 386.594)"></ellipse><ellipse cx="232.516" cy="386.573" fill="#fff" opacity=".5" rx="34.5" ry="34.417" transform="rotate(-19.999 232.535 386.594)"></ellipse><ellipse cx="232.516" cy="386.573" fill="#ffcf00" rx="30.994" ry="30.919" transform="rotate(-19.999 232.535 386.594)"></ellipse><path fill="#fd8a01" d="M241.172 411.854a1.5 1.5 0 0 1-1.41-.987l-5.111-14.042a1.5 1.5 0 0 1 2.819-1.026l5.111 14.042c.369.954-.393 2.031-1.409 2.013zm-24.973-4.376c-1.226.04-1.981-1.539-1.147-2.466l9.635-11.458a1.5 1.5 0 0 1 2.296 1.93l-9.635 11.458a1.493 1.493 0 0 1-1.149.536zm6.092-21.197a1.55 1.55 0 0 1-.261-.022l-14.746-2.584a1.5 1.5 0 0 1 .517-2.955l14.746 2.584c1.775.267 1.515 3.023-.256 2.977zm6.681-7.946a1.5 1.5 0 0 1-1.41-.987l-5.111-14.043a1.5 1.5 0 0 1 2.819-1.026l5.111 14.043c.369.954-.394 2.03-1.409 2.013zm10.226 1.792c-1.226.04-1.981-1.539-1.147-2.466l9.635-11.458a1.5 1.5 0 0 1 2.296 1.931l-9.635 11.458a1.498 1.498 0 0 1-1.149.535zm18.293 12.323a1.55 1.55 0 0 1-.261-.022l-14.746-2.585a1.5 1.5 0 0 1-1.219-1.736 1.505 1.505 0 0 1 1.736-1.219l14.746 2.585c1.775.268 1.514 3.023-.256 2.977zM228.934 408.279a1.5 1.5 0 0 1-1.479-1.761l.856-4.829a1.5 1.5 0 1 1 2.954.523l-.856 4.829a1.5 1.5 0 0 1-1.475 1.238zm-15.736-13.175c-1.614.055-2.076-2.394-.513-2.909l4.617-1.681a1.5 1.5 0 1 1 1.027 2.818l-4.617 1.681c-.17.062-.343.091-.514.091zm7.344-17.056a1.49 1.49 0 0 1-.962-.35l-3.76-3.148a1.5 1.5 0 0 1 1.926-2.301l3.76 3.148c1.083.844.38 2.701-.964 2.651zm14.704-5.351a1.5 1.5 0 0 1-1.479-1.761l.857-4.829a1.505 1.505 0 0 1 1.739-1.215 1.5 1.5 0 0 1 1.215 1.738l-.857 4.829a1.5 1.5 0 0 1-1.475 1.238zm11.972 10.026a1.5 1.5 0 0 1-.514-2.909l4.617-1.681a1.5 1.5 0 1 1 1.027 2.818l-4.617 1.681c-.17.061-.343.091-.513.091zm1.031 18.525c-.34 0-.681-.115-.962-.35l-3.761-3.149a1.5 1.5 0 0 1 1.926-2.301l3.761 3.149c1.084.844.381 2.701-.964 2.651z"></path><ellipse cx="232.516" cy="386.573" fill="#fff" opacity=".5" rx="5.847" ry="5.833" transform="rotate(-19.999 232.535 386.594)"></ellipse><path fill="#fd4cc8" d="M278.592 317.93c-3.518-2.286-8.059-2.241-11.563.084-14.616 9.697-32.117 33.83-25.288 52.591 6.828 18.761 35.747 25.998 53.177 24.032 4.179-.471 7.686-3.356 8.912-7.368 7.993-26.177-2.289-54.425-25.238-69.339z"></path><path fill="#fff" d="M251.568 357.775c-1.904-.03-3.458 1.573-3.308 3.466.207 2.61.771 5.16 1.758 7.601 1.094 2.706 2.654 5.149 4.571 7.34.934 1.068 2.585 1.11 3.54.055.644-.71.789-1.745.366-2.602-3.374-6.843-3.839-10.228-3.743-12.462a3.24 3.24 0 0 0-3.184-3.398z" opacity=".5"></path><path fill="#ff8ede" d="M268.451 356.34c2.66 4.627 1.56 9.54-.005 12.326-5.854 10.424.542 22.943 15.594 16.934 4.111-1.641 7.914-4.395 9.308-7.688 13.986-33.036-18.743-47.746-16.688-46.56-6.879-3.973-18.584-1.215-23.624 5.89-4.397 6.199 1.908 11.332 7.719 13.327 3.305 1.135 5.87 3.059 7.696 5.771z"></path><ellipse cx="281.65" cy="355.162" fill="#fd4cc8" rx="3.737" ry="2.602" transform="rotate(-20.965 281.624 355.136)"></ellipse><ellipse cx="283.457" cy="365.848" fill="#fd4cc8" rx="3.737" ry="2.602" transform="rotate(-20.965 283.43 365.82)"></ellipse><ellipse cx="283.271" cy="377.3" fill="#fd4cc8" rx="3.737" ry="2.602" transform="rotate(-20.965 283.244 377.272)"></ellipse><ellipse cx="275.857" cy="346.01" fill="#fd4cc8" rx="3.737" ry="2.602" transform="rotate(-20.965 275.83 345.985)"></ellipse><ellipse cx="268.07" cy="337.624" fill="#fd4cc8" rx="3.737" ry="2.602" transform="rotate(-20.965 268.045 337.6)"></ellipse><ellipse cx="234.458" cy="338.814" fill="#feac01" rx="33.306" ry="33.285" transform="rotate(-19.999 234.476 338.832)"></ellipse><ellipse cx="234.458" cy="338.814" fill="#fff" opacity=".5" rx="29.774" ry="29.755" transform="rotate(-19.999 234.476 338.832)"></ellipse><ellipse cx="234.458" cy="338.814" fill="#ffcf00" rx="26.748" ry="26.731" transform="rotate(-19.999 234.476 338.832)"></ellipse><path fill="#fd8a01" d="M241.941 360.874a1.5 1.5 0 0 1-1.41-.987l-4.419-12.141a1.5 1.5 0 0 1 2.817-1.031l4.419 12.141c.371.959-.391 2.035-1.407 2.018zm-21.56-3.795c-1.225.04-1.981-1.538-1.148-2.465l8.311-9.899a1.5 1.5 0 0 1 2.298 1.929l-8.311 9.899a1.498 1.498 0 0 1-1.15.536zm5.25-18.319c-.086 0-.174-.007-.262-.022l-12.73-2.241a1.5 1.5 0 0 1 .52-2.955l12.73 2.241c1.773.268 1.511 3.023-.258 2.977zm5.762-6.866a1.5 1.5 0 0 1-1.41-.987l-4.418-12.141a1.5 1.5 0 0 1 2.819-1.026l4.418 12.141c.37.954-.393 2.031-1.409 2.013zm8.828 1.554c-1.225.04-1.981-1.538-1.148-2.465l8.311-9.899a1.5 1.5 0 0 1 2.298 1.929l-8.311 9.899a1.496 1.496 0 0 1-1.15.536zm15.797 10.661c-.086 0-.174-.007-.262-.022l-12.73-2.241a1.5 1.5 0 0 1 .52-2.955l12.73 2.241c1.773.269 1.511 3.024-.258 2.977zM231.375 357.777c-.921.01-1.649-.854-1.479-1.761l.737-4.174a1.5 1.5 0 1 1 2.954.521l-.737 4.174a1.499 1.499 0 0 1-1.475 1.24zm-13.59-11.395c-1.614.055-2.076-2.394-.513-2.909l3.985-1.45a1.5 1.5 0 1 1 1.027 2.818l-3.985 1.45c-.17.061-.343.091-.514.091zm6.331-14.74c-.34 0-.682-.115-.963-.351l-3.248-2.723a1.5 1.5 0 0 1 1.927-2.299l3.248 2.723c1.083.843.38 2.7-.964 2.65zm12.691-4.618c-.921.01-1.649-.854-1.479-1.761l.737-4.174a1.5 1.5 0 0 1 2.954.521l-.737 4.174a1.5 1.5 0 0 1-1.475 1.24zm10.338 8.672c-1.614.055-2.076-2.394-.513-2.909l3.985-1.45a1.5 1.5 0 0 1 1.027 2.818l-3.985 1.45c-.17.062-.344.091-.514.091zm.899 16.013c-.34 0-.682-.115-.963-.351l-3.248-2.724a1.5 1.5 0 0 1 1.927-2.299l3.248 2.724c1.083.844.38 2.7-.964 2.65z"></path><ellipse cx="234.458" cy="338.814" fill="#fff" opacity=".5" rx="5.046" ry="5.043" transform="rotate(-19.999 234.476 338.832)"></ellipse><path fill="#fd4cc8" d="M35.816 284.213a10.028 10.028 0 0 0 10.397 3.714c16.273-3.942 39.845-19.937 39.845-39.069s-23.572-35.127-39.845-39.069a10.028 10.028 0 0 0-10.397 3.714c-15.713 20.952-15.713 49.759 0 70.71z"></path><path fill="#fff" d="M73.057 257.19c1.698.651 3.615-.283 4.098-2.036.667-2.418.993-4.899.904-7.421-.098-2.796-.699-5.506-1.703-8.107-.489-1.268-1.956-1.846-3.157-1.21a2.245 2.245 0 0 0-1.178 2.223c.792 7.268.105 10.468-.711 12.449-.669 1.621.108 3.473 1.747 4.102z" opacity=".5"></path><path fill="#ff8ede" d="M57.448 251.032c-.875-5.038 1.715-9.101 4.028-11.098 8.652-7.468 7.003-20.838-8.457-20.36-4.223.13-8.532 1.364-10.857 3.872-23.326 25.165 1.224 49.138-.232 47.396 4.872 5.832 16.269 7.185 23.109 2.439 5.967-4.141 1.988-10.83-2.573-14.531-2.594-2.104-4.266-4.677-5.018-7.718z"></path><ellipse cx="45.226" cy="247.767" fill="#fd4cc8" rx="3.567" ry="2.494" transform="rotate(-.957 45.357 248.433)"></ellipse><ellipse cx="47.093" cy="237.553" fill="#fd4cc8" rx="3.567" ry="2.494" transform="rotate(-.957 47.227 238.19)"></ellipse><ellipse cx="50.999" cy="227.301" fill="#fd4cc8" rx="3.567" ry="2.494" transform="rotate(-.957 51.139 227.912)"></ellipse><ellipse cx="47.434" cy="257.908" fill="#fd4cc8" rx="3.567" ry="2.494" transform="rotate(-.957 47.565 258.6)"></ellipse><ellipse cx="51.68" cy="268.011" fill="#fd4cc8" rx="3.567" ry="2.494" transform="rotate(-.957 51.828 268.732)"></ellipse><path fill="#fd4cc8" d="M436.273 284.213a10.028 10.028 0 0 1-10.397 3.714c-16.273-3.942-39.845-19.937-39.845-39.069s23.572-35.127 39.845-39.069a10.028 10.028 0 0 1 10.397 3.714c15.714 20.952 15.714 49.759 0 70.71z"></path><path fill="#fff" d="M399.033 257.19c-1.698.651-3.615-.283-4.098-2.036-.667-2.418-.992-4.899-.904-7.421.098-2.796.699-5.506 1.703-8.107.489-1.268 1.956-1.846 3.157-1.21a2.245 2.245 0 0 1 1.178 2.223c-.792 7.268-.105 10.468.711 12.449.669 1.621-.108 3.473-1.747 4.102z" opacity=".5"></path><path fill="#ff8ede" d="M414.642 251.032c.875-5.038-1.715-9.101-4.028-11.098-8.652-7.468-7.003-20.838 8.457-20.36 4.223.13 8.532 1.364 10.857 3.872 23.326 25.165-1.224 49.138.232 47.396-4.872 5.832-16.269 7.185-23.109 2.439-5.967-4.141-1.988-10.83 2.573-14.531 2.593-2.104 4.266-4.677 5.018-7.718z"></path><ellipse cx="426.864" cy="247.767" fill="#fd4cc8" rx="2.494" ry="3.567" transform="rotate(-89.043 426.831 247.761)"></ellipse><ellipse cx="424.996" cy="237.553" fill="#fd4cc8" rx="2.494" ry="3.567" transform="rotate(-89.043 424.964 237.547)"></ellipse><ellipse cx="421.091" cy="227.301" fill="#fd4cc8" rx="2.494" ry="3.567" transform="rotate(-89.043 421.06 227.297)"></ellipse><ellipse cx="424.655" cy="257.908" fill="#fd4cc8" rx="2.494" ry="3.567" transform="rotate(-89.043 424.623 257.901)"></ellipse><ellipse cx="420.409" cy="268.011" fill="#fd4cc8" rx="2.494" ry="3.567" transform="rotate(-89.043 420.377 268.004)"></ellipse><path fill="#db5e43" d="M232.926 223.113c19.585-25.95 13.409-77.06-27.238-79.566-3.645-.225-7.275.393-10.772 1.446-10.154 3.057-21.75.072-30.2-3.276-13.815-5.474-29.777-2.408-40.133 8.249-34.944 35.957 20.671 119.44 33.59 137.544 16.464 23.075 23.649 52.856 12.453 79.489 6.759 8.174 17.29 13.742 28.259 10.488 4.913-1.457 10.759-1.646 15.423 2.764 0 0 13.768-9.989 1.864-41.567-14.381-38.152-7.839-82.985 16.754-115.571z"></path><circle cx="162.271" cy="219.085" r="3.974" transform="rotate(-37.001 162.267 219.086)"></circle><circle cx="182.726" cy="246.232" r="3.974" transform="rotate(-37.001 182.722 246.233)"></circle><ellipse cx="153.163" cy="233.414" fill="#ff8ede" opacity=".5" rx="4.01" ry="5.347" transform="rotate(-37.001 153.158 233.414)"></ellipse><ellipse cx="165.845" cy="250.245" fill="#ff8ede" opacity=".5" rx="4.01" ry="5.347" transform="rotate(-37.001 165.84 250.245)"></ellipse><path fill="#a44a42" d="M172.749 190.762c11.703-.195 26.484 9.001 28.909 21.241 1.222 6.167 5.608 20.987 20.248 28.768 3.13-6.178 6.787-12.099 10.982-17.658 19.585-25.95 13.409-77.059-27.238-79.566-3.645-.225-7.275.393-10.772 1.446-10.154 3.057-21.75.072-30.2-3.276-13.815-5.474-29.777-2.407-40.133 8.249a37.352 37.352 0 0 0-5.062 6.532c5.344 20.138 33.522 34.593 53.266 34.264zM207.885 357.715c-12.626-3.105-16.65-16.149-17.892-25.496-1.824-13.724-9.686-25.994-21.741-32.801a56.728 56.728 0 0 0-3.363-1.753c11.608 21.213 15.477 46.278 5.906 69.045 6.759 8.175 17.29 13.742 28.259 10.488 4.913-1.457 10.759-1.646 15.423 2.764 0 0 4.117-3.003 5.9-10.885-4.881-9.06-12.492-11.362-12.492-11.362z"></path><path fill="#90d628" d="m225.396 183.518-4.135-1.49v-4.471l4.135 1.821zM206.227 170.942l-4.136-1.491v-4.471l2.821-2.153zM173.575 155.789l-4.136-1.49v-4.471l2.821-2.153zM154.353 173.964l-4.135-1.491v-4.471l2.82-2.152zM184.131 168.023l-4.135-1.49v-4.472l2.82-2.152zM221.601 165.85l-3.545-1.278v-3.832l4.429-.935zM192.198 186.54l-3.545-1.277v-3.833l4.43-.934zM232.043 199.385l-3.544-1.277v-3.833l4.429-.934zM212.235 201.291l-3.545-1.278v-3.832l4.429-.934zM141.312 158.936l-3.544-1.278v-3.832l4.429-.935zM180.082 214.37l-3.545-1.278v-3.832l4.43-.935zM189.983 233.683l-3.544-1.278v-3.832l4.429-.935zM217.492 224.571l-3.544-1.277v-3.833l4.429-.934zM205.489 255.074l-3.545-1.277v-3.833l4.43-.934zM178.983 299.005l-3.544-1.277v-3.833l4.429-.934zM198.854 325.832l-3.544-1.277v-3.833l4.429-.934zM207.796 345.704l-3.545-1.278v-3.832l4.43-.934zM187.925 365.576l-3.545-1.278v-3.832l4.43-.935zM205.809 369.55l-3.545-1.277v-3.833l4.43-.934zM184.944 342.723l-3.544-1.277v-3.833l4.429-.934zM196.627 304.107l-3.544-1.277v-3.833l4.429-.934zM188.031 279.343l-3.545-1.278v-3.832l4.43-.935zM165.15 273.53l-3.545-1.278v-3.832l4.43-.935zM153.615 204.313l-3.544-1.277v-3.833l4.429-.934zM133.268 198.269l-3.544-1.278v-3.832l4.429-.935zM138.104 219.648l-3.544-1.277v-3.833l4.429-.934zM149.186 251.099l-3.545-1.278v-3.832l4.43-.935z"></path><path fill="#db5e43" d="M289.771 137.31c-13.422-19.447-32.786-11.443-32.786-11.443-10.548 5.459-8.48 22.974-6.022 33.781 3.835 16.859 4.153 34.381.182 51.209-6.588 27.918-20.753 47.022-20.753 47.022-21.567 28.148-6.319 54.923-6.319 54.923l94.414 52.185c68.284-28.218 36.952-105.132.596-146.321-31.977-36.229-28.721-71.283-28.093-76.106.234-1.792-.172-3.735-1.219-5.25z"></path><path fill="#a44a42" d="M307.943 319.48c-64.804-11.312-53.885-63.323-53.885-63.323 3.024-15.279-1.629-24.182-7.726-29.362-6.982 18.991-15.94 31.083-15.94 31.083-21.567 28.148-6.319 54.923-6.319 54.923l94.414 52.185c13.707-5.664 23.392-13.294 29.837-22.2-9.012-12.318-22.053-20.107-40.381-23.306z"></path><path fill="#db5e43" d="M230.392 257.878c-6.051 7.897-9.203 15.686-10.607 22.806 9.91-2.265 96.439-19.79 135.595 48.66 12.411-34.956-10.696-81.675-36.296-110.679-31.977-36.229-28.721-71.283-28.093-76.106.233-1.791-.173-3.734-1.219-5.25-13.422-19.448-32.786-11.443-32.786-11.443-10.548 5.459-8.48 22.974-6.022 33.781 3.835 16.859 4.153 34.381.182 51.209-6.589 27.918-20.754 47.022-20.754 47.022z"></path><path fill="#a44a42" d="M254.058 256.157c3.024-15.279-1.629-24.182-7.726-29.362-6.982 18.991-15.94 31.083-15.94 31.083-6.051 7.897-9.203 15.686-10.607 22.806 3.585-.819 17.198-3.633 34.964-3.654-2.641-11.582-.691-20.873-.691-20.873zm20.037-94.519c-1.433 16.963 10.928 21.358 21.04 15.76-5.828-18.274-4.52-31.956-4.145-34.838.233-1.791-.173-3.734-1.219-5.25-13.422-19.448-32.786-11.443-32.786-11.443-4.319 2.235-6.52 6.492-7.449 11.481 2.609 2.34 6.088 4.214 10.744 5.189 8.357 1.75 14.521 10.752 13.815 19.101z"></path><circle cx="287.252" cy="251.96" r="3.974" transform="rotate(-17.001 287.21 251.928)"></circle><circle cx="277.314" cy="219.454" r="3.974" transform="rotate(-17.001 277.275 219.426)"></circle><g fill="#ff8ede"><ellipse cx="300.711" cy="241.611" opacity=".5" rx="4.01" ry="5.347" transform="rotate(-17.001 300.668 241.58)"></ellipse><ellipse cx="294.549" cy="221.457" opacity=".5" rx="4.01" ry="5.347" transform="rotate(-17.001 294.508 221.43)"></ellipse></g><path fill="#90d628" d="m333.404 315.473-4.135 1.49v4.471l4.135-1.821zM316.302 306.448l-4.135 1.49v4.471l2.821 2.153zM283.65 321.6l-4.135 1.49v4.471l2.82 2.153zM264.429 303.425l-4.136 1.491v4.471l2.821 2.153zM285.344 294.856l-4.135 1.49v4.471l2.82 2.153zM317.632 336.389l-3.544 1.278v3.832l4.429.934zM302.274 290.849l-3.545 1.277v3.833l4.43.934zM342.119 278.004l-3.544 1.278v3.832l4.429.934zM322.31 276.098l-3.544 1.278v3.832l4.429.935zM245.559 300.993l-3.545 1.277v3.833l4.429.934zM290.158 263.019l-3.545 1.278v3.832l4.429.935zM270.335 249.796l-3.545 1.277v3.833l4.43.934zM327.568 252.818l-3.545 1.277v3.833l4.43.934zM315.565 222.315l-3.545 1.278v3.832l4.43.934zM289.059 178.384l-3.545 1.278v3.832l4.43.934zM279.123 141.621l-3.544 1.278v3.832l4.429.935zM265.906 159.713l-3.545 1.277v3.833l4.429.934zM266.207 131.685l-3.544 1.278v3.832l4.429.935zM268.12 183.426l-3.544 1.277v3.833l4.429.934zM298.106 198.046l-3.544 1.278v3.832l4.429.935zM275.226 203.859l-3.545 1.278v3.832l4.43.935zM263.691 273.076l-3.545 1.278v3.832l4.43.935zM243.344 279.121l-3.545 1.277v3.832l4.43.935zM248.18 257.741l-3.545 1.277v3.833l4.43.934zM259.261 226.291l-3.544 1.277v3.832l4.429.935z"></path><path fill="#fff" d="M99.39 156.157c-6.855 13.743-6.532 33.2-4.547 48.135l-26.279 4.634s5.84-22.408-4.952-51.479c-8.011-21.581 21.441-27.237 32.994-14.424 5.041 5.591 4.186 10.322 2.784 13.134z"></path><path fill="#bfc3cf" d="M79.382 174.078c-7.059-18.824 1.806-29.746 10.472-35.815-13.324-5.811-32.963 1.079-26.243 19.183 10.792 29.071 4.951 51.479 4.951 51.479l13.621-2.402c1.292-7.625 1.967-19.73-2.801-32.445z"></path><path fill="#db5e43" d="M74.672 379.713c-52.085-16.626-16.948-70.161-16.948-70.161 24.453-42.265-4.857-90.622-4.857-90.622s22.432-27.312 41.164-21.995c0 0 8.747 49.61 35.447 83.673 18.73 23.895 48.106 87.884 8.526 107.378 0 0-27.177 14.593-53.715-3.457a37.025 37.025 0 0 0-9.617-4.816z"></path><path fill="#a44a42" d="M67.96 234.955c1.217 3.987 3.34 6.628 5.755 6.628 2.463 0 4.622-2.745 5.826-6.864 2.103-7.193 12.349-7.068 13.97.249.022.097.038.196.062.295 3.21 13.505 12.35 18.846 20.374 20.472-14.692-29.18-19.918-58.8-19.918-58.8-18.732-5.317-41.164 21.995-41.164 21.995s1.537 2.539 3.611 6.951c1.943.355 3.475.781 4.065 1.014 3.503 1.437 6.284 4.341 7.419 8.06zm65.758 116.94c-21.94 17.211-56.248 4.584-64.755-21.307-2.441-7.429-4.519-13.292-13.146-17.818-6.57 11.793-25.541 52.773 18.855 66.944a36.978 36.978 0 0 1 9.617 4.816c26.538 18.051 53.715 3.457 53.715 3.457 18.817-9.268 22.043-28.592 18.243-48.884-9.788-1.091-15.271 7.098-22.529 12.792z"></path><path fill="#fff" d="M124.178 289.054c-3.771-4.811-7.184-9.933-10.265-15.181a2.804 2.804 0 0 0-2.753-1.374c-2.068.249-3.158 2.578-2.016 4.319 5.157 7.862 15.827 23.837 23.053 42.694a4.423 4.423 0 0 0 4.661 2.801c3.008-.362 4.772-3.566 3.482-6.309-5.094-10.833-11.027-20.399-16.162-26.95z" opacity=".5"></path><circle cx="94.883" cy="329.524" r="3.974" transform="rotate(-17.001 94.868 329.48)"></circle><circle cx="84.946" cy="297.017" r="3.974" transform="rotate(-17.001 84.932 296.978)"></circle><ellipse cx="108.343" cy="319.175" fill="#ff8ede" opacity=".5" rx="4.01" ry="5.347" transform="rotate(-17.001 108.325 319.132)"></ellipse><ellipse cx="102.181" cy="299.021" fill="#ff8ede" opacity=".5" rx="4.01" ry="5.347" transform="rotate(-17.001 102.165 298.98)"></ellipse><path d="M92.452 319.488c-.483-1.301.558-1.86 1.474-2.017a4.964 4.964 0 0 0 3.29-6.19c-.727-2.565-3.658-4.124-6.191-3.292-.846.382-2.108.375-2.348-.85-.256-1.313.648-1.73 1.47-2.02 4.036-1.42 8.772 1.166 9.938 5.284 1.283 4.196-1.087 8.654-5.284 9.938-.295.116-1.787.662-2.349-.853zM175.733 238.094c-.748-1.168-1.822-.674-2.497-.037a4.964 4.964 0 0 1-6.924-1.098c-1.611-2.124-1.092-5.403 1.097-6.925.814-.446 1.569-1.458.734-2.386-.894-.995-1.772-.524-2.497-.042-3.563 2.368-4.348 7.707-1.761 11.117 2.579 3.55 7.566 4.34 11.116 1.761.27-.166 1.603-1.029.732-2.39zM284.61 241.927c-.437-1.317.623-1.84 1.543-1.964a4.964 4.964 0 0 0 3.504-6.072c-.637-2.589-3.512-4.249-6.072-3.506-.859.352-2.12.302-2.317-.931-.21-1.321.708-1.707 1.539-1.967 4.083-1.279 8.726 1.471 9.748 5.628 1.135 4.238-1.389 8.611-5.627 9.747-.299.105-1.809.598-2.318-.935z"></path><path fill="#90d628" d="m88.232 272.941-4.136-1.491v-4.471l4.136 1.822zM88.232 255.056l-4.136-1.49v-4.471l2.821-2.153zM84.941 215.313l-4.136-1.491v-4.471l2.821-2.153zM71.341 221.274l-4.135-1.49v-4.471l2.821-2.153zM95.497 227.546l-4.135-1.49v-4.471l2.82-2.153zM102.84 267.393l-3.545-1.277v-3.833l4.429-.934zM78.829 286.729l-3.545-1.278v-3.832l4.43-.935zM76.842 262.883l-3.545-1.278v-3.832l4.43-.935zM73.447 309.293l-3.545-1.278v-3.832l4.43-.934zM81.395 324.197l-3.544-1.278v-3.832l4.429-.935zM111.202 341.088l-3.545-1.278v-3.832l4.43-.935zM131.073 337.113l-3.545-1.277v-3.832l4.43-.935zM124.118 320.222l-3.545-1.277v-3.833l4.43-.934zM143.989 361.953l-3.545-1.277v-3.833l4.43-.934zM136.041 377.851l-3.545-1.278v-3.832l4.429-.935zM121.137 385.799l-3.544-1.277v-3.833l4.429-.934zM103.253 379.838l-3.544-1.278v-3.832l4.429-.935zM83.383 369.902l-3.545-1.278v-3.832l4.429-.934zM63.512 359.966l-3.545-1.278v-3.832l4.429-.934zM61.524 340.094l-3.544-1.277v-3.833l4.429-.934zM86.363 346.056l-3.544-1.278v-3.832l4.429-.935zM121.137 351.024l-3.544-1.278v-3.832l4.429-.935z"></path><path fill="#db5e43" d="M426.498 189.876c18.088-29.652 6.612-51.318-3.61-62.834-5.616-6.327-10.349-13.418-13.764-21.159-10.545-23.897-43.433-49.047-43.433-49.047-12.606-13.821-26.777-10.133-39.569-.122-26.759 20.944-33.943 58.459-17.766 88.343 29.28 54.09 77.713 152.301 68.273 194.354l54.285-17.015c-14.76-40.2-28.487-93.059-4.416-132.52z"></path><path fill="#a44a42" d="M354.279 118.626c13.662 3.641 27.912 11.243 32.275 27.011 6.079 21.967 30.521 29.23 46.109 31.632 8.545-23.221-1.064-40.413-9.775-50.227-5.616-6.327-10.349-13.418-13.764-21.159-10.545-23.897-43.433-49.047-43.433-49.047-12.606-13.821-26.777-10.133-39.569-.122a68.037 68.037 0 0 0-13.805 14.573c2.916 22.202 19.119 41.251 41.962 47.339zm52.62 181.519c-13.783 3.387-22.77-9.767-21.993-21.74.358-5.508-2.703-10.834-7.881-12.746-4.461-1.647-9.155-.413-12.51 1.054 10.183 29.04 15.965 55.543 12.114 72.699l54.285-17.015c-2.398-6.531-4.765-13.399-6.95-20.486-5.826-3.461-12.427-2.906-17.065-1.766z"></path><circle cx="384.483" cy="160.045" r="3.974" transform="rotate(-52.999 384.492 160.052)"></circle><circle cx="357.337" cy="139.589" r="3.974" transform="rotate(-52.999 357.346 139.594)"></circle><g fill="#ff8ede"><ellipse cx="370.155" cy="169.154" opacity=".5" rx="4.01" ry="5.347" transform="rotate(-52.999 370.164 169.16)"></ellipse><ellipse cx="353.325" cy="156.471" opacity=".5" rx="4.01" ry="5.347" transform="rotate(-52.999 353.333 156.477)"></ellipse></g><path fill="#90d628" d="m391.486 89.393-4.396.014-1.529-4.201 4.509.297zM378.502 103.724l-4.396.013-1.529-4.201 1.914-2.988zM342.637 100.653l-4.396.014-1.529-4.201 1.914-2.988zM330.79 124.306l-4.396.014-1.529-4.202 1.914-2.987zM353.375 125.205l-4.396.014-1.529-4.201 1.914-2.988zM347.237 73.642l-3.768.012-1.311-3.601 3.843-2.393zM370.654 123.18l-3.768.012-1.31-3.602 3.842-2.393zM399.239 112.398l-3.768.012-1.311-3.602 3.843-2.393zM394.527 130.188l-3.768.012-1.311-3.602 3.843-2.393zM323.825 93.303l-3.767.011-1.311-3.601 3.843-2.393zM366.247 80.851l-3.768.012-1.31-3.601 3.842-2.393zM344.697 180.45l-3.767.012-1.311-3.602 3.843-2.393zM407.43 150.266l-3.768.012-1.311-3.602 3.843-2.393zM422.129 168.742l-3.767.012-1.311-3.601 3.843-2.393zM396.7 233.382l-3.768.012-1.311-3.601 3.843-2.393zM399.937 271.326l-3.768.012-1.311-3.601 3.843-2.393zM381.328 258.847l-3.767.011-1.311-3.601 3.843-2.393zM391.197 285.081l-3.767.012-1.311-3.602 3.843-2.393zM375.3 235.806l-3.768.012-1.311-3.601 3.843-2.393zM408.413 182.003l-3.768.012-1.311-3.601 3.843-2.393zM388.542 191.939l-3.768.012-1.311-3.601 3.843-2.393zM398.477 211.811l-3.768.012-1.31-3.601 3.842-2.394zM388.542 311.17l-3.768.012-1.311-3.601 3.843-2.394zM408.413 301.234l-3.768.012-1.311-3.601 3.843-2.393zM374.988 214.175l-3.768.011-1.31-3.601 3.842-2.393zM340.476 153.077l-3.767.012-1.311-3.601 3.843-2.393zM312.02 113.391l-3.768.012-1.31-3.601 3.842-2.393zM323.825 144.607l-3.767.011-1.311-3.601 3.843-2.393zM352.315 198.557l-3.768.011-1.31-3.601 3.842-2.393z"></path><path d="M437.474 212.603c-5.01-6.383-11.69-4.937-18.4-2.232 2.034-6.836 4.882-13.447 8.705-19.714 18.989-31.131 5.789-53.843-3.769-64.611-5.739-6.466-10.286-13.453-13.514-20.768-10.382-23.528-41.36-47.684-43.788-49.552-11.422-12.442-25.773-12.509-41.511-.193a70.149 70.149 0 0 0-1.965 1.611 6.49 6.49 0 0 0-.697-1.826c-2.429-4.211-9.154-5.198-20.534-3.004-1.019-5.221-4.183-18.425-10.181-18.796-4.444-.263-8.484 6.136-12.695 20.134l-5.513 16.431c2.673-28.56-1.848-40.312-7.186-41.498-5.846-1.366-9.259 5.588-12.256 13.691-2.639-6.334-5.826-11.932-9.157-16.038-4.396-5.423-8.509-7.643-11.889-6.406-6.799 2.475-5.963 17.028-1.664 30.808-6.55-3.8-14.945-7.763-18.315-2.66-2.16 2.824-1.665 9.917 7.614 21.958a72.16 72.16 0 0 0-4.895 3.334c-6.277-13.926-20.301-23.654-36.572-23.654-11.636 0-22.127 4.976-29.458 12.902-1.546-11.485-5.447-21.068-11.44-21.068-7.235 0-11.427 13.962-12.1 28.381-4.854-5.813-11.386-12.407-16.301-8.764-3.994 2.554-6.166 13.835 6.633 40.376l-9.863-12.44c-8.771-11.75-14.755-16.398-18.843-14.616-5.509 2.399-3.967 15.89-3.138 21.145-11.445 1.831-17.426 5.059-18.269 9.846-1.146 6.507 8.152 13.158 13.022 16.155-7.64 3.354-11.659 7.197-12.26 11.701-.206 1.543.02 3.105.645 4.681-6.805 4.195-8.891 11.493-5.714 20.053 7.336 19.761 6.834 36.499 5.853 44.86-4.321 3.059-8.091 6.472-10.929 9.291-3.622-1.676-7.219-2.979-10.563-3.789a11.52 11.52 0 0 0-11.95 4.272c-16.009 21.347-16.009 51.163 0 72.51 2.76 3.704 7.536 5.359 11.95 4.272 5.918-1.434 12.614-4.336 18.859-8.32-1.009 9.159-3.7 18.576-8.956 27.663-.721 1.1-17.576 27.167-9.815 49.072 3.854 10.877 13.124 18.729 27.552 23.337a35.73 35.73 0 0 1 9.24 4.631c10.369 7.053 20.886 9.229 29.923 9.229 2.549 0 4.977-.176 7.253-.462 2.482.825 5.463 1.516 8.958 2.075-.829 5.255-2.371 18.745 3.138 21.145 4.087 1.78 10.072-2.864 18.818-14.581l9.89-12.476c-12.799 26.541-10.628 37.823-6.634 40.377 4.914 3.644 11.447-2.95 16.302-8.764.672 14.419 4.865 28.381 12.1 28.381 7.221 0 11.411-13.906 12.096-28.295 4.859 5.93 8.98 9.163 12.275 9.625 5.22.216 6.866-3.233 6.794-9.782 9.76 4.965 21.381 5.762 31.839 1.92 6.384-2.323 11.948-6.136 16.324-11.084.162.403.353.769.584 1.072 3.372 5.106 11.766 1.144 18.315-2.66-4.3 13.78-5.135 28.334 1.664 30.809 7.942 2.113 15.536-9.944 21.043-22.451 2.539 7.234 5.305 11.683 8.243 13.243 1.319.702 2.668.853 4.016.454 5.338-1.187 9.859-12.939 7.186-41.499l5.499 16.388c4.138 13.753 8.098 20.188 12.436 20.187.091 0 .182-.003.273-.008 5.998-.371 9.163-13.575 10.181-18.797 11.382 2.194 18.105 1.207 20.535-3.004 3.302-5.722-3.16-15.151-6.712-19.634 8.325-.539 13.417-2.776 15.522-6.802 4.445-8.672-7.08-23.072-16.304-27.389-3.922-2.086-9.316-5.672-14.135-11.245 3.617-5.484 6.233-11.563 7.785-18.253 7.899-34.059-13.617-77.687-38.444-105.814-31.752-35.974-28.235-71.039-27.73-74.92a9.235 9.235 0 0 0-.836-5.182c1.733-6.01 4.428-10.944 7.496-14.972a73.05 73.05 0 0 0 7.898 23.172c29.441 54.388 77.442 151.823 68.129 193.312-.281 1.084.859 2.128 1.912 1.76l54.285-17.015c.8-.233 1.262-1.173.959-1.948-3.731-10.162-7.585-21.586-10.719-33.639 5.461 2.31 12.136 2.053 15.871-3.127 16.008-21.348 16.008-51.165-.001-72.512zM327.046 57.896c13.302-10.34 26.068-12.452 37.536-.05.061.066.126.127.197.181.326.249 32.701 25.187 42.971 48.462 3.354 7.6 8.069 14.85 14.016 21.549a58.284 58.284 0 0 1 4.659 5.983c-54.284-18.915-92.328-53.566-107.245-68.876a67.603 67.603 0 0 1 7.866-7.249zm-86.395 6.651c3.448-.848 7.189.437 9.344 3.32 12.229 16.239 15.057 37.401 8.537 55.945-1.309.346-2.082.652-2.12.667-.04.017-.079.035-.117.055-6.214 3.216-8.41 10.129-8.738 17.491-3.822 2.578-8.299.939-12.365-.53.199-1.503.312-3.032.312-4.588 0-19.181-15.614-34.785-34.806-34.785-.186 0-.369.011-.554.014 1.388-18.26 24.416-33.708 40.507-37.589zm-20.53 242.589a34.598 34.598 0 0 0-8.81 5.726c-4.188-31.077 3.886-64.043 22.813-89.123 14.719-19.681 15.601-53.005-2.5-70.962 1.338-2.591 2.383-5.357 3.036-8.275 4.213 1.488 8.653 2.906 12.871.936.139 5.255 1.048 10.487 1.971 14.543 3.888 17.094 3.952 34.567.184 50.531-6.435 27.268-20.358 46.284-20.484 46.454-15.623 20.389-12.323 40.304-9.081 50.17zm43.158 45.105c-3.592 7.696-9.967 13.535-17.951 16.441-7.886 2.869-16.179 2.402-23.346-.659 1.205-6.765.731-16.517-4.406-30.146-2.604-6.908-4.5-14.072-5.716-21.362a31.491 31.491 0 0 1 9.287-6.538c.885 2.228 1.589 3.507 1.622 3.565.136.24.336.438.578.57l42.905 23.715a31.619 31.619 0 0 1-2.973 14.414zm5.959-12.763 34.733 19.198c1.691 9.193 1.269 18.837-1.577 28.154-1.047 3.431-4.048 5.91-7.645 6.316-16.261 1.834-42.779-4.634-50.667-20.913 14.421-3.901 25.087-17.88 25.156-32.755zm-109.844-53.115c-5.208-7.3-23.095-33.326-34.574-61.768-13.813-34.225-13.53-59.074.838-73.86 9.87-10.155 24.983-13.258 38.505-7.9 8.312 3.294 20.471 6.543 31.184 3.318 3.743-1.127 7.093-1.583 10.248-1.386 37.986 1.672 45.78 51.556 26.133 77.165-12.225 16.197-20.274 35.695-23.279 56.387-3.008 20.71-.823 41.671 6.319 60.617 9.511 25.23 2.127 36.152-.505 39.02-4.388-3.527-10.339-3.865-15.806-2.184-10.538 3.13-20.265-2.646-26.097-9.324 10.018-24.762 5.202-54.624-12.966-80.085zm11.57 29.931c-4.889 7.901-9.812 12.576-14.818 15.596-5.131-19.962-15.98-40.079-25.487-52.207-25-31.893-34.244-78.206-35.086-82.659-1.045-12.104-.756-28.856 5.559-41.1 4.624 1.365 9.154 3.209 13.623 6.673-15.315 41.372 31.569 110.614 42.197 125.509 6.414 8.988 11.101 18.533 14.012 28.188zm-2.072-179.387c0-17.526 14.269-31.785 31.807-31.785s31.806 14.259 31.806 31.785c0 4.944-1.163 9.612-3.191 13.787-6.363-5.268-14.348-8.354-23.533-8.921-3.511-.215-7.208.276-11.297 1.507-8.333 2.51-17.772.704-25.247-1.791a31.476 31.476 0 0 1-.345-4.582zm10.4-84.29c15.253 0 28.381 9.234 34.073 22.39h.262c-8.971 7.268-15.892 16.767-16.519 27.299-13.386 1.377-24.539 10.371-29.055 22.556-14.973-4.761-25.854-18.753-25.854-35.246 0-20.401 16.64-36.999 37.093-36.999zM70.248 133.632c.499-3.738 5.069-7.356 13.216-10.464 1.18-.405 1.291-2.172.173-2.724-5.912-3.166-14.987-9.915-14.17-14.546.601-3.406 6.731-6.115 17.261-7.627.82-.1 1.428-.943 1.262-1.753-1.284-7.059-1.814-18.099 1.127-19.38.893-.389 4.628-.557 15.269 13.694l19.355 24.411c.146.211.339.394.492.595.939 1.705 3.594.192 2.607-1.484-20.719-36.361-17.852-49.154-15.214-50.77.042-.026.084-.055.124-.085 3.528-2.674 11.701 7.532 14.777 11.376.823 1.104 2.717.438 2.671-.938 0-17.377 4.846-29.487 9.196-29.487 3.619 0 7.57 8.4 8.8 21.224a39.729 39.729 0 0 0-7.995 23.942c0 17.826 11.754 32.958 27.932 38.108a34.648 34.648 0 0 0-1.239 9.182c0 1.167.078 2.314.192 3.452-14.786-6.196-31.668-2.98-42.576 8.287-3.249 3.344-5.732 7.079-7.572 11.11-4.676-3.472-9.387-5.368-14.063-6.744.351-2.93-.348-6.773-4.152-10.993-6.253-6.934-18.261-9.161-27.102-5.462-.349-.962-.502-1.943-.371-2.924zm-5.23 23.292c-4.789-11.65 4.247-19.422 15.058-19.179 8.868-1.315 22.839 9.534 17.971 17.741-5.937 11.903-6.423 27.622-5.626 39.556-7.148-1.225-14.566 1.581-21.085 5.613.817-9.228.618-25.048-6.318-43.731zM45.86 286.47c-3.331.803-6.802-.434-8.844-3.157-15.215-20.286-15.215-48.622 0-68.908 2.04-2.74 5.577-3.963 8.844-3.157 2.837.687 5.904 1.78 9.023 3.175-1.841 1.951-2.979 3.317-3.176 3.556a1.5 1.5 0 0 0-.124 1.729c.215.355 16.007 26.97 14.174 57.457-6.529 4.517-13.74 7.813-19.897 9.305zm39.289 96.831a38.714 38.714 0 0 0-10.004-5.012l-.017-.005c-13.489-4.306-22.116-11.531-25.643-21.475-7.269-20.494 9.324-46.177 9.537-46.506 22.72-39.271-.404-84.144-4.329-91.199 3.728-4.261 22.325-24.388 37.968-20.963.018.201.033.413.052.611h.142c1.752 8.683 11.454 52.18 35.442 82.782 14.651 18.69 32.622 56.692 26.702 82.656-2.344 10.28-8.285 17.834-17.704 22.474-.264.142-26.72 13.932-52.146-3.363zM209.86 428.56c-.541.421-1.117.611-1.879.493-2.937-.412-7.475-4.544-12.776-11.635-.787-1.238-2.844-.716-2.815.788 0 17.377-4.847 29.487-9.196 29.487s-9.196-12.11-9.196-29.487c.044-1.374-1.841-2.042-2.671-.938-3.077 3.844-11.253 14.048-14.777 11.376a1.701 1.701 0 0 0-.124-.085c-2.638-1.615-5.505-14.408 15.214-50.77l.028-.05.002-.004c.903-2.275-2.281-2.915-3.089-.887l-19.421 24.496c-10.611 14.214-14.347 14.052-15.242 13.66-2.941-1.281-2.412-12.321-1.127-19.38.165-.81-.442-1.653-1.262-1.753a77.992 77.992 0 0 1-3.823-.649c6.672-1.644 10.873-3.843 10.962-3.892 10.224-5.035 16.704-13.271 19.258-24.476 2.056-9.016 1.352-19.397-1.046-29.937 5.103-2.914 10.187-7.363 15.16-14.761 3.984 15.843 3.157 31.823-2.796 45.983a1.5 1.5 0 0 0 .227 1.537c5.265 6.367 13.83 12.199 23.595 11.958a39.65 39.65 0 0 0 1.776 20.648c3.165 8.697 9.06 15.627 16.37 20.187.524 4.785-.204 7.388-1.352 8.091zm35.311-7.217c-19.22 6.996-40.533-2.913-47.51-22.083a36.666 36.666 0 0 1-1.489-19.904 24.48 24.48 0 0 0 3.14-.707c5.761-1.713 10.46-.898 13.966 2.415a1.499 1.499 0 0 0 1.911.124c.307-.223 4.101-3.114 6.114-10.191a34.735 34.735 0 0 0 13.176 2.606c2.192 0 4.404-.217 6.609-.647 4.697 10.377 15.83 17.106 27.829 20.602-2.388 12.641-11.59 23.469-23.746 27.785zm118.423-65.709c7.919 4.306 17.788 14.259 15.054 23.35-1.748 3.342-7.28 5.179-15.998 5.313-1.248-.022-1.956 1.599-1.095 2.501 4.473 4.997 10.692 14.442 8.341 18.515-1.729 2.994-8.415 3.442-18.828 1.263-.807-.186-1.664.397-1.786 1.216-1.205 7.071-4.481 17.628-7.688 17.825-.991.08-4.541-1.061-9.666-18.094L321.68 376.98a1.499 1.499 0 0 0-2.905.701c5.755 38.361.422 52.232-3.063 52.94-.652.209-1.255.193-1.935-.18-2.619-1.391-5.469-6.825-8.027-15.303-.319-1.429-2.429-1.645-2.916-.222-5.943 16.328-14.643 26.042-18.726 24.563-4.087-1.488-4.5-14.525 1.443-30.855.514-1.278-1.04-2.549-2.189-1.794-4.206 2.559-15.378 9.356-17.777 5.635-.429-.538-.649-1.218-.614-2.453 3.347-4.59 5.751-10.12 6.833-15.673 5.798 1.428 11.694 2.123 17.075 2.123 2.164 0 4.247-.112 6.204-.333 4.786-.54 8.781-3.845 10.178-8.42 2.743-8.983 3.342-18.255 2.048-27.184l10.45 5.776c.4.222.878.247 1.298.074 13.109-5.417 23.132-12.823 30.035-22.1 4.987 5.588 10.474 9.217 14.502 11.359zm-45.016 7.689-11.935-6.597c-.013-.062-.023-.125-.036-.187h-.302l-81.116-44.836c-1.128-2.202-6.826-14.363-4.031-29.962l.023.171c13.594-2.918 94.916-17.244 132.549 47.592-5.52 14.934-17.312 26.29-35.152 33.819zm-.619-143.666c24.318 27.553 45.429 70.133 37.771 103.152-.227.979-.49 1.939-.765 2.892-25.571-41.724-69.07-50.156-100.076-50.156-15.268 0-27.508 2.047-33.08 3.172 1.55-6.313 4.537-13.092 9.788-19.946.144-.193 14.425-19.675 21.008-47.57 3.872-16.407 3.81-34.35-.179-51.887-2.23-9.803-4.515-26.985 5.188-32.084 1.334-.529 18.606-6.916 30.924 10.931.797 1.156 1.159 2.728.966 4.205-.524 4.018-4.173 40.325 28.455 77.291zm-19.375-101.146a47.96 47.96 0 0 0-9.087 15.911c-9.284-11.784-20.872-12.279-27.581-11.297 6.1-19.061 2.949-40.501-9.524-57.063-2.878-3.821-7.764-5.559-12.444-4.432-5.219 1.259-11.019 3.597-16.626 6.782-8.729-11.159-9.014-17.076-7.78-18.627.031-.039.06-.08.087-.122 2.399-3.722 13.57 3.076 17.777 5.635 1.152.754 2.703-.517 2.189-1.794-5.943-16.329-5.531-29.366-1.443-30.854 1.975-.717 5.167 1.328 8.533 5.478 3.798 4.683 7.417 11.461 10.193 19.086.486 1.424 2.597 1.201 2.916-.222 2.646-8.374 5.938-16.458 9.962-15.483 3.484.708 8.818 14.579 3.062 52.941-.305 1.759 2.377 2.404 2.905.7l10.263-30.588c5.112-16.988 8.689-18.104 9.651-18.05 3.202.197 6.48 10.754 7.688 17.825.122.818.98 1.404 1.786 1.216 10.411-2.18 17.098-1.732 18.828 1.264.444.769.57 1.736.471 2.823-16.336 15.311-24.061 37.169-21.826 58.871zm79.995 218.716c7.191-43.692-39.832-139.18-68.903-192.884-13.795-25.483-10.324-55.908 7.498-76.936l.012-.009c15.514 15.889 55.173 51.894 111.687 70.652.012.022.047.049.068.073 6.832 12.415 9.352 29.538-3.722 50.971-24.765 40.6-9.965 94.649 3.748 132.341l-50.388 15.792zm56.494-53.915c-3.501 4.867-9.521 3.459-14.357 1.424-5.635-22.955-8.409-47.935-2.647-70.704 5.661-2.334 12.635-5.435 17.003.371 15.216 20.287 15.216 48.623.001 68.909z"></path><path d="M375.773 154.567c-1.009-.953-1.931-.213-2.432.569a4.963 4.963 0 0 1-6.984.609c-2.077-1.671-2.367-4.979-.611-6.985.682-.63 1.169-1.794.135-2.493-1.108-.749-1.846-.08-2.433.564-2.884 3.16-2.354 8.53.981 11.213 3.362 2.82 8.391 2.381 11.212-.981.222-.226 1.307-1.387.132-2.496z"></path></svg>