<svg xmlns="http://www.w3.org/2000/svg" viewBox="170.1 201.78 2659.8 2596.44"><circle cx="1503.29" cy="1263.92" r="944.12" fill="#f5f5f7"/><path fill="#e1e9f4" d="M1125.36 1775.88a5.33 5.33 0 0 1-.35-10.65 124.62 124.62 0 0 0 22.41-3.55 5.33 5.33 0 1 1 2.63 10.33 135 135 0 0 1-24.33 3.86ZM1079.48 1771.79a5.05 5.05 0 0 1-1.21-.14 246.37 246.37 0 0 1-44.62-15.28 5.33 5.33 0 1 1 4.32-9.75 237.07 237.07 0 0 0 42.71 14.65 5.33 5.33 0 0 1-1.2 10.52Zm-84.73-36.19a5.28 5.28 0 0 1-2.67-.72c-6.91-4-14.16-8.42-22.18-13.46-6.21-3.9-11.88-7.51-17.33-11a5.33 5.33 0 1 1 5.8-9c5.4 3.5 11 7.09 17.2 11 7.91 5 15.07 9.31 21.87 13.26a5.33 5.33 0 0 1-2.69 9.94Zm-77.51-50.36a5.29 5.29 0 0 1-3.11-1c-13.52-9.75-25.55-19.12-36.8-28.65a5.33 5.33 0 0 1 6.89-8.13c11 9.35 22.86 18.55 36.15 28.13a5.34 5.34 0 0 1-3.13 9.66Zm-70.13-60a5.34 5.34 0 0 1-3.87-1.66c-7-7.41-13.71-15-19.82-22.68-3.51-4.38-6.92-8.9-10.16-13.44a5.33 5.33 0 1 1 8.68-6.18c3.12 4.37 6.42 8.73 9.8 13 5.93 7.4 12.4 14.8 19.23 22a5.34 5.34 0 0 1-3.86 9ZM793.93 1550a5.32 5.32 0 0 1-4.79-3 251.81 251.81 0 0 1-16.75-44.09 5.33 5.33 0 1 1 10.28-2.81 241.59 241.59 0 0 0 16.05 42.22 5.35 5.35 0 0 1-4.79 7.68Zm-23.7-88.72a5.33 5.33 0 0 1-5.32-5.09c-.13-2.87-.19-5.78-.19-8.64a186 186 0 0 1 1.77-25.73c.59-4.27 1.35-8.61 2.24-12.9a5.33 5.33 0 0 1 10.44 2.18c-.85 4.06-1.56 8.16-2.12 12.19a175.59 175.59 0 0 0-1.67 24.26c0 2.7.06 5.45.18 8.17a5.32 5.32 0 0 1-5.09 5.56Zm18-89.77a5.24 5.24 0 0 1-2.14-.45 5.33 5.33 0 0 1-2.74-7 351.14 351.14 0 0 1 21.87-41.49 5.33 5.33 0 1 1 9.11 5.54 341.22 341.22 0 0 0-21.22 40.23 5.32 5.32 0 0 1-4.87 3.18Zm47-79.42a5.26 5.26 0 0 1-3.06-1 5.34 5.34 0 0 1-1.3-7.43c5.8-8.25 11.8-16.58 17.6-24.63q4.69-6.51 9.35-13a5.34 5.34 0 0 1 8.68 6.21c-3.11 4.35-6.25 8.69-9.38 13-5.78 8-11.76 16.33-17.53 24.53a5.31 5.31 0 0 1-4.3 2.33Zm53.09-75.74a5.34 5.34 0 0 1-4.48-8.22 381.58 381.58 0 0 0 22.59-39.58 5.33 5.33 0 1 1 9.59 4.67 394.32 394.32 0 0 1-23.21 40.68 5.35 5.35 0 0 1-4.43 2.46Zm39.1-83.31a5.43 5.43 0 0 1-1.32-.17 5.33 5.33 0 0 1-3.85-6.49 162.81 162.81 0 0 0 5.27-40.84v-3.43a5.33 5.33 0 0 1 10.66-.23v3.66a175.81 175.81 0 0 1-5.6 43.48 5.33 5.33 0 0 1-5.1 4.03Zm-1.66-91.28a5.33 5.33 0 0 1-5.15-4c-3.87-14.44-9-28.79-14.33-43.45a5.33 5.33 0 0 1 10-3.65c5.42 14.89 10.62 29.48 14.61 44.34a5.33 5.33 0 0 1-3.77 6.53 5.51 5.51 0 0 1-1.3.24Zm-29.36-87.65a5.33 5.33 0 0 1-5.13-3.89 236.83 236.83 0 0 1-8.61-46.44 5.33 5.33 0 0 1 10.63-.78 226.19 226.19 0 0 0 8.24 44.33 5.34 5.34 0 0 1-3.68 6.58 5.57 5.57 0 0 1-1.39.21Zm-4.37-91.19a5.52 5.52 0 0 1-1.49-.21 5.35 5.35 0 0 1-3.63-6.61 95.74 95.74 0 0 1 24.54-41.68 5.33 5.33 0 1 1 7.54 7.53 85.47 85.47 0 0 0-21.84 37.13 5.34 5.34 0 0 1-5.06 3.85Zm61.7-64.45a5.33 5.33 0 0 1-2.13-10.22c14.2-6.2 29.67-11 44.3-15.27a5.33 5.33 0 1 1 3 10.22c-14.31 4.23-29.42 8.86-43.07 14.82a5.33 5.33 0 0 1-2.04.46ZM1041.76 769.39a5.33 5.33 0 0 1-1.87-10.32 201.07 201.07 0 0 0 21.15-9.21 5.33 5.33 0 1 1 4.86 9.48 210 210 0 0 1-22.27 9.72 5.35 5.35 0 0 1-1.87.33ZM1966.2 763.31a5.25 5.25 0 0 1-1.74-.29c-7.38-2.56-14.89-5-22.34-7.28a5.33 5.33 0 0 1 3.11-10.2c7.58 2.31 15.22 4.81 22.72 7.4a5.33 5.33 0 0 1-1.75 10.37ZM1959.56 1675.74a5.33 5.33 0 0 1-.82-10.6 449.81 449.81 0 0 0 46-9.66 5.33 5.33 0 0 1 2.75 10.3 456.24 456.24 0 0 1-47.07 9.89 5.93 5.93 0 0 1-.86.07Zm91.57-24.91a5.33 5.33 0 0 1-2-10.26 300 300 0 0 0 41.67-21 5.33 5.33 0 1 1 5.55 9.1 311 311 0 0 1-43.16 21.76 5.36 5.36 0 0 1-2.06.4Zm80.6-49.6a5.33 5.33 0 0 1-3.55-9.31c2.41-2.15 4.8-4.38 7.1-6.6a194.27 194.27 0 0 0 23.71-27.86 5.33 5.33 0 1 1 8.73 6.13 205.5 205.5 0 0 1-25 29.39c-2.4 2.32-4.9 4.64-7.42 6.9a5.32 5.32 0 0 1-3.57 1.35Zm54.42-77a5.22 5.22 0 0 1-2-.41 5.32 5.32 0 0 1-2.89-7 207.36 207.36 0 0 0 12.74-44.42 5.33 5.33 0 1 1 10.51 1.76 216.94 216.94 0 0 1-13.45 46.76 5.32 5.32 0 0 1-4.91 3.3Zm15.18-93a5.33 5.33 0 0 1-5.3-4.87 152.43 152.43 0 0 0-10.56-44.54 5.33 5.33 0 0 1 9.87-4 162.83 162.83 0 0 1 11.31 47.65 5.33 5.33 0 0 1-4.85 5.77Zm-35.91-86.29a5.33 5.33 0 0 1-4-1.81c-3.85-4.39-8-8.72-12.08-12.91-6.87-7.11-14-14.47-20.07-22.68a5.33 5.33 0 0 1 8.56-6.36c5.69 7.66 12.24 14.45 19.18 21.64 4.13 4.27 8.4 8.7 12.42 13.27a5.32 5.32 0 0 1-4 8.85Zm-51.86-78a5.33 5.33 0 0 1-5.17-4.05 151.07 151.07 0 0 1-4.23-36.09c0-4.19.16-8.5.48-12.8a5.33 5.33 0 1 1 10.63.78c-.29 4-.44 8.09-.44 12a140 140 0 0 0 3.91 33.53 5.34 5.34 0 0 1-3.9 6.46 5.66 5.66 0 0 1-1.28.12Zm5.59-93.78a5.33 5.33 0 0 1-5.08-6.94 248.21 248.21 0 0 1 19.18-44.58 5.33 5.33 0 1 1 9.34 5.15 237.35 237.35 0 0 0-18.36 42.65 5.33 5.33 0 0 1-5.08 3.67Zm44.56-83.55a5.34 5.34 0 0 1-4.37-8.38l2.94-4.22c8-11.42 16.19-23.22 23.48-35a5.34 5.34 0 0 1 9.07 5.62c-7.45 12-15.76 24-23.8 35.48l-2.94 4.21a5.31 5.31 0 0 1-4.38 2.24Zm47.78-81.91a5.48 5.48 0 0 1-1.77-.3 5.34 5.34 0 0 1-3.26-6.8 107.57 107.57 0 0 0 6.57-36c0-2.83-.13-5.68-.39-8.47a5.33 5.33 0 1 1 10.61-1c.29 3.11.44 6.3.44 9.46a117.88 117.88 0 0 1-7.17 39.51 5.33 5.33 0 0 1-5.03 3.55Zm-9.11-91.18a5.33 5.33 0 0 1-4.53-2.5c-7.25-11.63-17.06-23-30-34.86a5.33 5.33 0 0 1 7.2-7.86c13.64 12.49 24 24.61 31.83 37.07a5.33 5.33 0 0 1-4.52 8.15Zm-68.06-65.62a5.3 5.3 0 0 1-3.12-1c-12.67-9.17-25.85-18-39.18-26.24a5.33 5.33 0 1 1 5.6-9.07c13.55 8.37 27 17.35 39.83 26.67a5.33 5.33 0 0 1-3.13 9.65Zm-80.85-49.93a5.33 5.33 0 0 1-2.46-.61c-13.89-7.23-28.22-14-42.59-20.23a5.33 5.33 0 1 1 4.22-9.79 656.088 656.088 0 0 1 43.3 20.56 5.34 5.34 0 0 1-2.47 10.07ZM1888.52 1682.17a5.33 5.33 0 0 1-.16-10.66c7.9-.24 15.8-.62 23.46-1.15a5.33 5.33 0 0 1 .73 10.64c-7.8.53-15.83.93-23.87 1.17Z"/><circle cx="2292.76" cy="983.23" r="22.88" fill="#e1e9f4"/><circle cx="789.72" cy="889.95" r="45.61" fill="#e1e9f4"/><circle cx="918.95" cy="1291.08" r="17.42" fill="#e1e9f4"/><circle cx="2099.3" cy="930.51" r="14.31" fill="#e1e9f4"/><circle cx="700.02" cy="641.2" r="44.44" fill="#f5f5f7"/><circle cx="530.02" cy="1002.3" r="44.44" fill="#f5f5f7"/><circle cx="516.51" cy="1444.01" r="44.44" fill="#f5f5f7"/><circle cx="2318.62" cy="641.2" r="44.44" fill="#f5f5f7"/><circle cx="2488.61" cy="1002.3" r="44.44" fill="#f5f5f7"/><circle cx="2502.13" cy="1444.01" r="44.44" fill="#f5f5f7"/><path fill="#e1e9f4" d="M476.81 1877.16h2073.73v33.76H476.81zM476.81 2009.72h2073.73v33.76H476.81zM476.81 1779v708.91a18 18 0 1 1-36 0V1779a18 18 0 1 1 36 0Z"/><path fill="#e1e9f4" d="M727.33 1779v708.91a18 18 0 1 1-36 0V1779a18 18 0 1 1 36 0ZM977.86 1779v708.91a18 18 0 1 1-36 0V1779a18 18 0 1 1 36 0ZM2085.48 1779v708.91a18 18 0 1 1-36 0V1779a18 18 0 1 1 36 0ZM2336 1779v708.91a18 18 0 1 1-36 0V1779a18 18 0 1 1 36 0ZM2586.52 1779v708.91a18 18 0 1 1-36 0V1779a18 18 0 1 1 36 0Z"/><path fill="#cedbee" d="M670.88 2491.24s-24.88-87.73 0-91.8 33.73 26.88 33.73 26.88 19.58-90.18 46.83-80.7 23.69 53.82 23.69 53.82-35.54-136.75-4.74-149.78 36.73 71.61 36.73 71.61 40.57-126.11 85.29-82.28 9.88 118.57 9.88 118.57 103.75-89.07 114.46-20.89 0 81.94 0 81.94 30.86-28.87 51 7.71-4.74 68.45-4.74 68.45ZM1925.4 2491.24s-24.87-87.73 0-91.8 33.73 26.88 33.73 26.88 19.59-90.18 46.83-80.7 23.7 53.82 23.7 53.82-35.54-136.75-4.74-149.78 36.72 71.61 36.72 71.61 40.58-126.11 85.3-82.28 9.87 118.57 9.87 118.57 103.76-89.07 114.47-20.89 0 81.94 0 81.94 30.85-28.87 51 7.71-4.73 68.45-4.73 68.45Z"/><path fill="#aebfce" d="M474.44 2483.88s.09-69.4-48.75-109.26S291 2359.45 291 2359.45s17.26 58.32 75.88 96.88 107.56 27.55 107.56 27.55Z"/><path fill="#aebfce" d="M310.66 2368.76s68.53 17.06 103.32 48.46 60.46 66.66 60.46 66.66-48.81-49.79-86.1-75.89-77.68-39.23-77.68-39.23Z"/><path fill="#cedbee" d="M521.52 2494.77s56.71-110.06 11.69-213.13-201.4-133.87-201.4-133.87-20.14 106.62 41.47 215.62 148.24 131.38 148.24 131.38Z"/><path fill="#aebfce" d="M355.42 2178.57s94.86 82.93 124.48 161.12 41.62 155.08 41.62 155.08-36.88-118.77-74.79-190.62-91.31-125.58-91.31-125.58ZM2486.4 2481.55s-.11-84.21 59.15-132.58 163.45-18.41 163.45-18.41-20.95 70.77-92.09 117.57-130.51 33.42-130.51 33.42Z"/><path fill="#aebfce" d="M2685.15 2341.86s-83.17 20.7-125.38 58.8-73.37 80.89-73.37 80.89 59.23-60.42 104.48-92.08 94.27-47.61 94.27-47.61Z"/><path fill="#cedbee" d="M2429.26 2494.77s-68.81-133.56-14.18-258.63 244.39-162.45 244.39-162.45 24.44 129.39-50.31 261.65-179.9 159.43-179.9 159.43Z"/><path fill="#aebfce" d="M2630.83 2111.07s-115.12 100.63-151.06 195.51-50.51 188.19-50.51 188.19 44.74-144.18 90.74-231.31 110.83-152.39 110.83-152.39Z"/><path fill="#aec6d3" d="M735.45 2492.72a32.42 32.42 0 0 1-1.73-3.24c-.48-1 .22-.09.06.2a5.48 5.48 0 0 0-.29-.71c-.23-.6-.44-1.21-.64-1.82a33.64 33.64 0 0 1-.92-3.55c-.12-.57-.21-1.14-.31-1.71-.17-1.08.1.37.06.45.12-.26-.1-1.05-.13-1.35-.09-1.15-.12-2.31-.1-3.47 0-.58 0-1.16.08-1.74 0-.32.05-.64.08-1s.15-1.61 0-.54 0-.2.06-.35.09-.51.14-.76c.11-.57.24-1.14.37-1.7a36.52 36.52 0 0 1 1.13-3.69 7.68 7.68 0 0 0 .35-.89s-.63 1.38-.15.36c.27-.58.54-1.16.84-1.73a31.08 31.08 0 0 1 1.87-3.15 10.53 10.53 0 0 0 1-1.35c-.48 1.11-.53.68-.14.2.2-.23.39-.47.6-.7a31.65 31.65 0 0 1 2.57-2.61q.56-.49 1.11-1c.12-.1 1.1-.82.26-.22l.27-.19a34.66 34.66 0 0 1 3.09-2c1-.55 1.94-1.05 3-1.51a5.71 5.71 0 0 0 .67-.3c-1.16.76-.74.32-.24.12s1.27-.47 1.91-.68a37.2 37.2 0 0 1 3.73-1c.64-.13 1.38-.15 2-.34-.11 0-1.53.16-.5.07l1.09-.1a32 32 0 0 1 4-.06c.61 0 1.22.09 1.83.14 1.28.09-1.17-.2-.32-.06l1.27.21a6.13 6.13 0 0 0 5.23-1.07 5.83 5.83 0 0 0 2.37-4.71c0-3.07 0-6.13.27-9.19.12-1.53.29-3.05.47-4.57.11-1-.23 1.48 0-.08.05-.32.09-.64.14-1 .14-.88.29-1.75.45-2.62a86.34 86.34 0 0 1 2-8.42c.33-1.16.68-2.31 1.08-3.44.19-.57.4-1.14.61-1.71l.36-.93c.07-.19.15-.37.23-.56l-.22.51a47.26 47.26 0 0 1 3.55-6.66c.32-.49.66-1 1-1.46.13-.19.93-.91.24-.33s.14-.16.27-.31a30.31 30.31 0 0 1 2.71-2.84c.39-.36.8-.69 1.19-1 1-.88-.84.59-.17.12.24-.17.48-.35.72-.51a23.7 23.7 0 0 1 3.09-1.77c.22-.1.45-.19.66-.3-1.31.7-.83.33-.45.19.57-.2 1.12-.41 1.7-.59 1.1-.34 2.42-.38 3.47-.79-.08 0-1.55.16-.53.07l1-.08h1.94c.65 0 1.28.15 1.91.15-.1 0-1.54-.28-.57-.06.34.08.68.13 1 .21.61.15 1.21.32 1.81.53a7.77 7.77 0 0 0 .8.31l-.8-.34.62.3c.51.26 1 .55 1.49.86l.71.5c.36.27.19.13-.53-.41l.53.46c2.36 2.08 6.2 2.49 8.49 0 2.09-2.27 2.51-6.26 0-8.48a24.15 24.15 0 0 0-16.71-6 29.53 29.53 0 0 0-16.33 5.34c-10.18 7.4-15.25 19.3-17.86 31.26a103.75 103.75 0 0 0-2.38 23.7l7.59-5.79a41 41 0 0 0-33.44 8.75c-9.15 7.41-14.08 19.36-13.73 31a40 40 0 0 0 5.63 19.51c1.63 2.68 5.45 3.93 8.21 2.15a6.09 6.09 0 0 0 2.15-8.2ZM861.37 2424.64c.59-.78-.26.35-.32.41.15-.17.29-.36.43-.53.29-.35.58-.69.88-1 .67-.75 1.37-1.48 2.1-2.18s1.32-1.22 2-1.8c.39-.32 1.59-1.07.1-.11.43-.27.82-.6 1.23-.89a40.62 40.62 0 0 1 4.9-3c.8-.41 1.62-.79 2.44-1.16s-1.21.49-.5.21l.62-.25c.48-.19 1-.37 1.43-.53a44.22 44.22 0 0 1 5.54-1.56c.88-.19 1.77-.35 2.67-.49.4-.07 1.09-.05-.59.07.22 0 .45-.05.67-.08l1.52-.14a43.15 43.15 0 0 1 5.57-.09c.9 0 1.8.12 2.69.22l.67.08c-1.76-.14-.88-.12-.42 0s1 .16 1.49.26a39.81 39.81 0 0 1 6.15 1.72c.26.1 1.82.73.85.32s.56.27.82.39c1 .49 2 1 3 1.6a6.11 6.11 0 0 0 8.2-2.15c1.84-2.85 3.79-5.6 5.8-8.31.4-.54-.33.43-.33.42s.25-.31.37-.47l.74-.94c.54-.67 1.09-1.34 1.65-2q1.6-1.89 3.31-3.71a77 77 0 0 1 7.35-6.87l.92-.74c.87-.69-.87.65 0 0 .68-.5 1.36-1 2.06-1.48q2.1-1.44 4.3-2.7t4.36-2.23c.35-.16.72-.3 1.08-.47 0 0-1.16.46-.53.23l.55-.22c.73-.29 1.46-.56 2.2-.8a41.32 41.32 0 0 1 4.36-1.19c.68-.15 1.37-.28 2.06-.4l1-.16-.73.1c.23 0 .47 0 .7-.08a44 44 0 0 1 8.89-.06l1 .12c.67.06-.81-.12-.74-.11s.35 0 .52.08c.74.11 1.48.25 2.21.4a39.65 39.65 0 0 1 4.15 1.11c.81.26 1.61.56 2.4.88s-1.23-.55 0 0c.36.16.72.33 1.07.51a31.88 31.88 0 0 1 4.07 2.39c.32.22.64.46 1 .69.52.37-.6-.47-.55-.43s.35.28.52.42c.65.54 1.28 1.11 1.88 1.7s1.11 1.13 1.63 1.72c.26.3.49.64.76.92 0 0-.79-1.06-.41-.53l.5.69c1.82 2.56 5.32 4 8.21 2.16 2.53-1.64 4.1-5.48 2.15-8.21a38.49 38.49 0 0 0-16.91-13.39 45.8 45.8 0 0 0-19.33-3.33c-14.94.6-28.31 8.07-38.83 18.36a114.31 114.31 0 0 0-15.77 19.84l8.21-2.15c-15.4-9.09-36-8-50.79 1.86a47.22 47.22 0 0 0-11.56 11 6 6 0 0 0-.61 4.62 6.14 6.14 0 0 0 2.76 3.59 6 6 0 0 0 4.62.61 7.06 7.06 0 0 0 3.59-2.76ZM909.29 2361.29s-.62 1.09-.27.59a2.11 2.11 0 0 0 .28-.45s-.82 1.29-.23.39c.1-.15.67-.5-.05 0s.27-.17.46-.3c.39-.25.79-.48 1.19-.72q2.69-1.58 5.45-3c1.77-.93 3.57-1.81 5.38-2.65.91-.42 1.82-.83 2.74-1.23l.63-.27c.63-.28-.33.13-.37.15a12.73 12.73 0 0 1 1.71-.69 97.31 97.31 0 0 1 11.61-3.94c1-.26 1.95-.49 2.94-.68.45-.09.91-.16 1.36-.24.14 0 .93-.14.12 0s.19 0 .35 0a27.15 27.15 0 0 1 3-.15c.93 0 1.89.2 2.81.16 0 0-1.28-.21-.61-.08l.77.14c.52.1 1 .22 1.54.35s.88.26 1.32.4l.74.27c-.84-.31 0 0 .17.11s.46.23.69.36c.4.22.79.45 1.17.7.16.11.31.23.48.33.61.39-.95-.83-.14-.1.38.35.77.69 1.13 1.07a6 6 0 0 0 8.49-8.49c-7.09-7.21-17.6-8.21-27-6.26a81 81 0 0 0-13.23 4.19 140 140 0 0 0-13.41 6c-4.93 2.55-10.94 5.18-12.75 10.9a6.06 6.06 0 0 0 4.19 7.38 6.14 6.14 0 0 0 7.38-4.19ZM2008.51 2476.15a22 22 0 0 1-1-3.48c0-.23-.08-.47-.13-.7-.26-1.29.12 1.48 0 .17 0-.59-.1-1.18-.11-1.78 0-1.18.26-2.42.17-3.57 0 .1-.25 1.52-.06.52.06-.29.1-.59.16-.89.13-.65.29-1.3.46-1.94s.34-1.16.54-1.74a9.7 9.7 0 0 0 .64-1.72c0 .12-.6 1.34-.16.42l.39-.83c.3-.62.62-1.22.95-1.81a33.41 33.41 0 0 1 2-3.14c.14-.2.31-.39.44-.6-.81 1.27-.4.52-.13.19.43-.54.88-1.05 1.34-1.56a32.63 32.63 0 0 1 2.51-2.48c.42-.37.85-.72 1.27-1.08 1-.86-1.19.84 0 0l1-.72a47.13 47.13 0 0 1 7.19-4.07l.76-.34c1.31-.6-1.26.49.09 0l1.74-.68c1.37-.5 2.75-1 4.15-1.37 2.68-.8 5.41-1.44 8.15-2s5.52-1 8.29-1.37l.83-.11c-1.91.28.27 0 1-.14.59-.08 1.18-.16 1.75-.29a11.8 11.8 0 0 0 5.72-3c2.81-2.81 3.38-6.78 3.65-10.56a70.36 70.36 0 0 0-.15-9.18 82 82 0 0 1-.22-9.14c0-.68.09-1.35.16-2 .14-1.47-.2 1 0 0 .08-.36.13-.74.21-1.11.15-.71.33-1.41.55-2.11a10.29 10.29 0 0 0 .61-1.71l-.33.77c.1-.22.2-.44.31-.66s.21-.43.32-.64c.28-.54.57-1.06.89-1.57s.67-1 1-1.5.54-.28-.28.36a6.3 6.3 0 0 0 .69-.84 29.79 29.79 0 0 1 2.54-2.61c.45-.41.93-.79 1.39-1.18s.26.13-.34.26c.28-.06.65-.48.9-.65a34.18 34.18 0 0 1 3.46-2.13c.66-.36 1.32-.69 2-1l.68-.31c1.09-.5-1.31.52.1 0a47 47 0 0 1 9.48-2.51l.92-.14h-.22l.7-.09c.84-.1 1.69-.18 2.54-.25 1.71-.14 3.42-.22 5.14-.27 3.59-.11 7.18 0 10.77 0a6 6 0 0 0 0-12c-12.94-.22-26.47-.12-38.15 6.19a37.54 37.54 0 0 0-12.88 11.4c-3.67 5.23-5.12 11.56-5.21 17.88 0 3.21.24 6.42.4 9.63.08 1.53.14 3.06.12 4.59 0 .76 0 1.53-.08 2.29 0 .3 0 .6-.07.91s-.06.6-.09.91c.12-.82.14-1 .07-.57s-.12.65-.2 1l-.1.38c-.17.49-.16.5 0 0 .78-.83-.42.19-.23.31-.34-.21 1.09-1.05 1.08-1.07l-.32.2q-.85.45.39-.12a4.41 4.41 0 0 0-.74.22c-.39.1-.77.18-1.16.24s-1.75.25 0 0c-3.31.45-6.61.91-9.89 1.52-11.61 2.17-23.52 6.3-32.11 14.73-9.06 8.89-14.56 23.09-9.89 35.48 1.1 2.93 4.1 5.26 7.38 4.19 2.86-.92 5.37-4.23 4.19-7.38ZM2163.44 2365.53c.79-.67-1.28.9 0 0 .25-.17.51-.35.77-.51a19.26 19.26 0 0 1 1.89-1c.49-.23 1.34-.29-.3.12a9.07 9.07 0 0 0 .87-.32 21.17 21.17 0 0 1 2.07-.58l.91-.18c1.44-.26-.64 0-.21 0 .67 0 1.34-.11 2-.13s1.45 0 2.18.07c.31 0 .62.08.93.09-1.92-.07-.74-.1-.21 0a23.62 23.62 0 0 1 4.05 1.13c.48.18 1.2.75-.28-.13.26.16.56.26.84.4a20.52 20.52 0 0 1 1.88 1.06c.26.17.52.34.77.52 1.29.9-.76-.69 0 0 .47.41.93.8 1.37 1.24.25.26.5.52.74.79s.9 1.38-.06-.14c.39.61.84 1.18 1.21 1.81a5.87 5.87 0 0 0 4.38 2.87 6.15 6.15 0 0 0 5-1.65c3.54-3 6.23-6.72 9.24-10.18.75-.86 1.52-1.7 2.33-2.5.36-.35.73-.7 1.1-1l.57-.5c1.08-.91.16.09 0 0a11.81 11.81 0 0 0 1.41-1c.47-.29.94-.56 1.43-.81.21-.1.46-.19.66-.31-1.11.68-.87.35-.43.19s1.14-.41 1.72-.57 1.06-.27 1.6-.37 1.08.09-.34 0a5.66 5.66 0 0 0 .72-.08 21.13 21.13 0 0 1 3.28 0c.2 0 1.34.23.29 0s-.15 0 .1 0c.54.09 1.07.21 1.6.34s.94.26 1.4.41l.68.25c1.17.38-1.12-.55-.09 0a24.12 24.12 0 0 1 2.83 1.63c.33.22.7.68-.34-.29l.56.47a16.88 16.88 0 0 1 1.3 1.24c.2.21 1.29 1.57.69.75s.41.62.56.85c.25.41.49.82.72 1.24l.33.64.3.65-.32-.78c.32 1.16.79 2.25 1.05 3.43.06.29.1.59.16.88.16.75-.13-1.43 0-.35.05.6.1 1.19.11 1.79s0 1.31-.06 2c0 .25-.16 1 0 .09s0 .22-.1.44a18.16 18.16 0 0 1-1.1 3.59 6 6 0 0 0 .61 4.62 6.14 6.14 0 0 0 3.59 2.76 6.06 6.06 0 0 0 4.62-.61 7.13 7.13 0 0 0 2.76-3.58c4.51-10.9-.19-24.29-10-30.57a25.41 25.41 0 0 0-16.26-3.74 26.86 26.86 0 0 0-16.16 7.85c-4.08 4-7.16 9-11.58 12.68l9.43 1.22a26.18 26.18 0 0 0-18-12.24c-8.09-1.35-16 .35-22.31 5.63-2.42 2-2.24 6.43 0 8.49 2.58 2.36 5.9 2.15 8.49 0ZM2227.17 2440.09a22.48 22.48 0 0 1 1.18-2c.4-.65-.8.93-.29.36.12-.13.23-.27.34-.41.32-.35.65-.7 1-1s.53-.48.8-.72c.77-.68-1.11.79.07-.05a20.08 20.08 0 0 1 2.17-1.34c.7-.39 1.47-.66 2.15-1.06 0 0-1.19.47-.57.24l.7-.27c.4-.15.81-.3 1.23-.44a43.65 43.65 0 0 1 5.25-1.39c1-.21 1.95-.36 2.93-.53.7-.11-.44.06-.46.06a7 7 0 0 1 .91-.1l1.59-.12c1-.06 2-.08 3-.06.52 0 1.05 0 1.58.08.23 0 .45.05.68.06 1.16.1-.79-.16 0 0 1 .19 1.92.36 2.86.63.44.12.87.26 1.3.41l.68.25c.76.27-.24-.05-.43-.19.62.44 1.42.7 2.09 1.1.36.22.72.45 1.07.69l.44.32c.6.41-1.15-1-.21-.15a21.53 21.53 0 0 1 1.94 1.88l.35.41c.7.79-.57-.83-.17-.23.23.35.48.69.7 1s.46.83.68 1.24c.09.18.32.77 0-.07s0 .14.09.27a14.77 14.77 0 0 1 .65 2.78 6 6 0 0 0 2.76 3.58 6 6 0 0 0 8.21-2.15 7 7 0 0 0 .6-4.62c-1.29-9.22-9.76-16.26-18.42-18.36a40.75 40.75 0 0 0-16.28-.2 45.8 45.8 0 0 0-12.73 4 23.17 23.17 0 0 0-10.72 10.1c-1.38 2.81-.84 6.62 2.16 8.21 2.71 1.43 6.72.85 8.21-2.16Z"/><path fill="#aec6d3" d="M2261.34 2432.54c.34-.51.74-1 1.07-1.52-1 1.52.16-.16.45-.51a33.85 33.85 0 0 1 2.72-2.77q.61-.55 1.26-1.08l.28-.24-.33.26a3.45 3.45 0 0 0 .59-.43 33.12 33.12 0 0 1 3.29-2.08c.53-.3 1.08-.59 1.64-.86a9.88 9.88 0 0 0 1.51-.7l-.75.32.69-.28.69-.25c.7-.25 1.4-.48 2.12-.69 1.06-.31 2.14-.56 3.24-.77l1.09-.18c1-.17-.4.08-.5.06a11.84 11.84 0 0 0 2.21-.18 31.61 31.61 0 0 1 3.51 0l1.66.14c1.35.13-1.53-.28-.08 0l1.25.23c.69.15 1.37.32 2 .52l.81.26.39.15c.62.24.53.19-.27-.13.5 0 1.26.62 1.68.86s.59.38.88.57c1.18.74-.91-.87 0 0 .46.42.91.83 1.33 1.29l.49.56c.87 1-.73-1.14 0 0s1.28 2.13 1.85 3.27-.47-1.31 0 0l.27.72c.22.6.42 1.21.6 1.82.37 1.23.67 2.47.93 3.73.17.84.32 1.68.46 2.53.07.39.13.79.19 1.18s.07.47.1.71q-.16-1.22 0-.18c.19 1.75.36 3.49.46 5.24a80.51 80.51 0 0 1-.2 11c-.27 3.13 3 6.13 6 6a6.17 6.17 0 0 0 6-6 84.63 84.63 0 0 0-1.15-22.3c-1.13-6.23-3.37-12.65-7.94-17.21-5.05-5-12.4-6.89-19.34-6.93a40.75 40.75 0 0 0-18 4.26 39.42 39.42 0 0 0-15.44 13.62 6 6 0 0 0 2.15 8.21 6.14 6.14 0 0 0 8.21-2.15Z"/><path fill="none" stroke="#aec6d3" stroke-linecap="round" stroke-miterlimit="10" stroke-width="6" d="M331.81 2147.77s-33.76 265.49 189.71 347M2659.47 2073.69s36.05 320.79-230.21 421.08"/><path fill="#cedbee" d="M2046.88 467.31v1906.1a106 106 0 0 1-106 106h-858.44a106 106 0 0 1-106-106V467.31a105.94 105.94 0 0 1 106-105.95h858.49a105.94 105.94 0 0 1 105.95 105.95Z"/><path fill="#aebfce" d="M1940.93 2483.37h-858.49a110.08 110.08 0 0 1-110-110V467.31a110.07 110.07 0 0 1 110-109.95h858.49a110.07 110.07 0 0 1 110 110v1906.1a110.08 110.08 0 0 1-110 109.91Zm-858.49-2118a102.07 102.07 0 0 0-102 101.95v1906.1a102.07 102.07 0 0 0 102 102h858.49a102.07 102.07 0 0 0 102-102V467.31a102.07 102.07 0 0 0-102-101.95Z"/><path fill="#fff" d="M2006.62 519.63v1760.63a97.94 97.94 0 0 1-98 97.87h-793.88a97.94 97.94 0 0 1-98-97.87V519.63a97.92 97.92 0 0 1 98-97.87h793.89a97.92 97.92 0 0 1 97.99 97.87Z"/><path fill="#cedbee" d="M939.51 552.63h191.29v226a50.76 50.76 0 0 1-50.8 50.79h-89.73a50.76 50.76 0 0 1-50.76-50.76V552.63ZM1321.38 552.63h191.29v226a50.76 50.76 0 0 1-50.76 50.76h-89.77a50.76 50.76 0 0 1-50.76-50.76v-226ZM1703.25 552.63h191.29v226a50.76 50.76 0 0 1-50.76 50.76H1754a50.76 50.76 0 0 1-50.76-50.76v-226h.01Z"/><path fill="#aec6d3" d="M1130.44 552.63h191.29v226a50.76 50.76 0 0 1-50.73 50.79h-89.8a50.76 50.76 0 0 1-50.76-50.76V552.63ZM1512.32 552.63h191.29v226a50.76 50.76 0 0 1-50.76 50.76h-89.77a50.76 50.76 0 0 1-50.76-50.76v-226ZM2085.47 552.63v191.61c0 1.7 0 3.39-.17 5.07-2.93 44.68-44.54 80.12-95.47 80.12s-92.53-35.44-95.45-80.12a61.03 61.03 0 0 1-.19-5.07V552.63Z"/><path fill="#f5f5f7" d="m1194.71 421.76-63.91 130.87H939.51l79.91-102.2a74.7 74.7 0 0 1 58.84-28.67ZM1512.67 421.76v130.87h-190.93l15.42-130.87h175.51zM1894.18 552.63h-190.57l-38.15-130.87h153.24l75.48 130.87z"/><path fill="#cedbee" d="m1337.16 421.76-15.42 130.87H1130.8l63.91-130.87h142.45zM1703.61 552.63h-190.94V421.76h152.79l38.15 130.87zM2085 552.63h-190.82l-75.48-130.87h127.53a74.69 74.69 0 0 1 58.84 28.67Z"/><path fill="#fff" d="M1078.12 1624.79c-8.38 0-15.2-7.62-15.2-17v-550.26c0-9.37 6.82-17 15.2-17H1467c8.39 0 15.21 7.61 15.21 17v550.28c0 9.36-6.82 17-15.21 17Z"/><path fill="#cedbee" d="M1467 1043.55c6.72 0 12.2 6.27 12.2 14v550.28c0 7.71-5.48 14-12.2 14h-388.88c-6.72 0-12.2-6.27-12.2-14v-550.3c0-7.71 5.48-14 12.2-14H1467m0-6h-388.88c-10 0-18.2 9-18.2 20v550.28c0 11 8.17 20 18.2 20H1467c10 0 18.2-9 18.2-20v-550.28c0-11-8.17-20-18.2-20Z"/><path fill="#fff" d="M1550.63 1624.79c-8.39 0-15.21-7.62-15.21-17v-550.26c0-9.37 6.82-17 15.21-17h388.9c8.38 0 15.2 7.61 15.2 17v550.28c0 9.36-6.82 17-15.2 17Z"/><path fill="#cedbee" d="M1939.53 1043.55c6.73 0 12.2 6.27 12.2 14v550.28c0 7.71-5.47 14-12.2 14h-388.9c-6.73 0-12.2-6.27-12.2-14v-550.3c0-7.71 5.47-14 12.2-14h388.9m0-6h-388.9c-10 0-18.2 9-18.2 20v550.28c0 11 8.16 20 18.2 20h388.9c10 0 18.2-9 18.2-20v-550.28c0-11-8.16-20-18.2-20Z"/><path fill="#aebfce" d="m1404.27 1202-18.71 19.13q2.75 2.64 5.39 5.39a165.75 165.75 0 0 1 46 111v7.63a165.73 165.73 0 0 1-46 111q-2.64 2.76-5.39 5.41a165.7 165.7 0 0 1-111 46h-7.63a165.72 165.72 0 0 1-111-46q-2.74-2.64-5.4-5.39a165.73 165.73 0 0 1-46-111v-7.63a165.69 165.69 0 0 1 46-111c1.77-1.83 3.56-3.62 5.39-5.39a165.69 165.69 0 0 1 111-46h7.63v-26.77h-3.82c-106.56 0-192.93 86.38-192.93 192.94s86.37 193 192.93 193 193-86.39 193-193a192.34 192.34 0 0 0-59.46-139.32Z"/><path fill="#cedbee" d="m1404.19 1165.63-111 111v-156.97a165.67 165.67 0 0 1 111 45.97Z"/><path fill="#cedbee" d="M1436.94 1341.27v3.82a165.73 165.73 0 0 1-46 111q-2.64 2.76-5.39 5.41a165.7 165.7 0 0 1-111 46h-7.63a165.72 165.72 0 0 1-111-46q-2.74-2.64-5.4-5.39a165.73 165.73 0 0 1-46-111v-7.63a165.69 165.69 0 0 1 46-111c1.77-1.83 3.56-3.62 5.39-5.39a165.69 165.69 0 0 1 111-46h7.63v156.93l111-111q2.75 2.64 5.39 5.39a165.75 165.75 0 0 1 46 111q.01 1.96.01 3.86Z"/><path fill="#aebfce" d="M1436.91 1345.09H1280l111 111q-2.64 2.76-5.39 5.41l-111-111v156.9h-7.63v-156.92l-111 111q-2.74-2.64-5.4-5.39l111-111h-156.94v-7.63h156.93l-111-111c1.77-1.83 3.56-3.62 5.39-5.39l111 111v-156.93h7.63v156.93l111-111q2.75 2.64 5.39 5.39l-111 111h156.92v3.81c.04 1.27.03 2.55.01 3.82ZM1422.9 1146.5l-18.71 19.13a165.67 165.67 0 0 0-111-46v-26.77a192.25 192.25 0 0 1 129.71 53.64Z"/><circle cx="1152.89" cy="1276.25" r="6.99" fill="#aebfce"/><circle cx="1169.41" cy="1285.15" r="1.91" fill="#aebfce"/><circle cx="1140.81" cy="1300.4" r="5.09" fill="#aebfce"/><circle cx="1171.16" cy="1308.51" r="8.1" fill="#aebfce"/><circle cx="1198.02" cy="1306.76" r="6.36" fill="#aebfce"/><circle cx="1218.36" cy="1319.79" r="3.18" fill="#aebfce"/><circle cx="1348.08" cy="1166.24" r="6.99" fill="#aebfce"/><circle cx="1338.67" cy="1182.48" r="1.91" fill="#aebfce"/><circle cx="1324.31" cy="1153.41" r="5.09" fill="#aebfce"/><circle cx="1315.27" cy="1183.5" r="8.1" fill="#aebfce"/><circle cx="1316.18" cy="1210.4" r="6.36" fill="#aebfce"/><circle cx="1302.52" cy="1230.33" r="3.18" fill="#aebfce"/><circle cx="1397.11" cy="1288.67" r="6.99" fill="#aebfce"/><circle cx="1380.38" cy="1297.18" r="1.91" fill="#aebfce"/><circle cx="1384.15" cy="1264.98" r="5.09" fill="#aebfce"/><circle cx="1360.19" cy="1285.3" r="8.1" fill="#aebfce"/><circle cx="1346.32" cy="1308.37" r="6.36" fill="#aebfce"/><circle cx="1324.02" cy="1317.66" r="3.18" fill="#aebfce"/><circle cx="1205.44" cy="1450.81" r="6.99" fill="#aebfce"/><circle cx="1215.39" cy="1434.9" r="1.91" fill="#aebfce"/><circle cx="1228.75" cy="1464.44" r="5.09" fill="#aebfce"/><circle cx="1238.82" cy="1434.68" r="8.1" fill="#aebfce"/><circle cx="1238.82" cy="1407.77" r="6.36" fill="#aebfce"/><circle cx="1253.16" cy="1388.31" r="3.18" fill="#aebfce"/><circle cx="1141.92" cy="1377.88" r="6.99" fill="#aebfce"/><circle cx="1160.11" cy="1373.24" r="1.91" fill="#aebfce"/><circle cx="1149.38" cy="1403.83" r="5.09" fill="#aebfce"/><circle cx="1177.21" cy="1389.26" r="8.1" fill="#aebfce"/><circle cx="1195.79" cy="1369.79" r="6.36" fill="#aebfce"/><circle cx="1219.59" cy="1365.62" r="3.18" fill="#aebfce"/><circle cx="1198.65" cy="1219.67" r="10.17" fill="#aebfce"/><circle cx="1221.06" cy="1233.82" r="5.88" fill="#aebfce"/><circle cx="1231.39" cy="1216.81" r="7.31" fill="#aebfce"/><circle cx="1219.63" cy="1261.63" r="4.45" fill="#aebfce"/><circle cx="1242.51" cy="1255.39" r="6.36" fill="#aebfce"/><circle cx="1237.43" cy="1277.52" r="1.27" fill="#aebfce"/><circle cx="1399.97" cy="1374.09" r="10.17" fill="#aebfce"/><circle cx="1374.21" cy="1380.3" r="5.88" fill="#aebfce"/><circle cx="1379.2" cy="1399.56" r="7.31" fill="#aebfce"/><circle cx="1355.27" cy="1359.89" r="4.45" fill="#aebfce"/><circle cx="1343.79" cy="1380.64" r="6.36" fill="#aebfce"/><circle cx="1331.47" cy="1361.58" r="1.27" fill="#aebfce"/><circle cx="1329.35" cy="1459.64" r="10.17" fill="#aebfce"/><circle cx="1308.87" cy="1442.83" r="5.88" fill="#aebfce"/><circle cx="1296.52" cy="1458.43" r="7.31" fill="#aebfce"/><circle cx="1313.73" cy="1415.42" r="4.45" fill="#aebfce"/><circle cx="1290.26" cy="1418.77" r="6.36" fill="#aebfce"/><circle cx="1298.04" cy="1397.44" r="1.27" fill="#aebfce"/><path fill="#cedbee" d="m1728.6 1297.31 90.89-164.72a7.15 7.15 0 0 1 6.33-3.33h13.52c5.17 0 8.53 4.4 6.2 8.14L1744 1300.49c-2.55 4.09 1.71 8.8 7.3 8.06a7.37 7.37 0 0 0 4.26-2l150.85-148.71a8.06 8.06 0 0 1 10.57-.16l9 8.25a4.84 4.84 0 0 1-.12 7.53l-168.71 146.94a7.78 7.78 0 0 1-5.07 1.8c-9.44.05-36.24-1.76-23.48-24.89Z"/><path fill="#83a3b2" d="M1605.9 1330.47s-12.36-17.23-6.18-25.62 12.81-4 12.81-4-4-15.91 0-22.53 15.9 0 15.9 0-4-20.76 8.39-23 19.44 10.16 19.44 10.16-6.19-16.34 0-18.11 9.27 12.81 9.27 12.81 8.4-18.85 23.86-13a22.6 22.6 0 0 1 15 20.91s9.28-7.07 13.7-1.33 2.21 13.26 2.21 13.26 11.48-6.19 14.57 3.09 4.09 13.25 4.09 13.25 11.81-26 23.3-8.15 5.74 25.38 5.74 25.38 16.78-5.75 18.11 4.41-9.28 24.57-9.28 24.57Z"/><path fill="#aec6d3" d="M1657.14 1348.58s19-46.38 30-38l11 8.4s.44-35.34 18.55-38.87 22.2 19.43 22.2 19.43.77-31.36 14-33.13 13.25 4.07 13.25 4.07 4-20 10.16-17.76 0 12.81 0 12.81 7.51-15 15-8l7.51 7.07s-4.42-20.76 16.78-24.3 29.16 30.13 29.16 30.13 11-3.63 13.69 7.42-4 19.87-4 19.87 18.11 2.21 19.88 11 0 23 0 23Z"/><circle cx="1657.89" cy="1276.54" r="6.05" fill="#cedbee"/><circle cx="1682.32" cy="1265.1" r="3.98" fill="#cedbee"/><circle cx="1627.51" cy="1299.23" r="4.82" fill="#cedbee"/><circle cx="1721.45" cy="1300.69" r="3.35" fill="#fff"/><circle cx="1737.86" cy="1310.92" r="3.42" fill="#fff"/><circle cx="1793.85" cy="1282.1" r="3.75" fill="#fff"/><circle cx="1809.53" cy="1291.6" r="5.74" fill="#fff"/><circle cx="1818.3" cy="1273.52" r="3.03" fill="#fff"/><circle cx="1833.65" cy="1291.42" r="2.92" fill="#fff"/><path fill="#cedbee" d="M1900.42 1350.63c-.31 2.36-.66 4.71-1.06 7a205.66 205.66 0 0 1-8 32.24q-2.31 6.86-5.08 13.42c-26.26 62.74-82.18 106-146.91 106-65.48 0-121.94-44.31-147.82-108.21q-2.68-6.6-4.91-13.46a207.57 207.57 0 0 1-7.7-32.53c-.24-1.51-.45-3-.65-4.54a28.63 28.63 0 0 1 0-8c1.55-10.91 9.24-19.48 18.74-19.48h284.58c10.16 0 18.25 9.81 19 21.79a27.57 27.57 0 0 1-.19 5.77Z"/><path fill="#aebfce" d="M1900.42 1350.63c-.31 2.36-.66 4.71-1.06 7a399.32 399.32 0 0 1-52.7 9.72c-51.76 6.22-104.68 5.09-156.69 3.32-37.48-1.28-75.22-4.84-111.06-15.53-.24-1.51-.45-3-.65-4.54a28.63 28.63 0 0 1 0-8 315.87 315.87 0 0 0 51.1 11.33c49.11 6.94 99.83 6.41 149.32 5.62 41.06-.66 82.29-3.9 121.87-14.64a27.57 27.57 0 0 1-.13 5.72ZM1891.33 1389.9q-2.31 6.86-5.08 13.42c-13.06 2.86-26.29 5-39.59 6.6-51.76 6.23-104.68 5.1-156.69 3.33-33.11-1.13-66.42-4-98.45-12.09q-2.68-6.6-4.91-13.46a326.28 326.28 0 0 0 42.8 8.84c49.11 6.94 99.83 6.42 149.32 5.61 37.86-.61 75.88-3.4 112.6-12.25Z"/><path fill="#dfe9f4" d="M1254.09 1760.72v184.48a18.76 18.76 0 0 1-18.7 18.8H1071a18.77 18.77 0 0 1-18.71-18.8v-184.48a18.76 18.76 0 0 1 18.71-18.79h164.36a18.75 18.75 0 0 1 18.73 18.79ZM1491.17 1760.72v184.48a18.76 18.76 0 0 1-18.71 18.8h-164.35a18.76 18.76 0 0 1-18.71-18.8v-184.48a18.75 18.75 0 0 1 18.71-18.79h164.35a18.75 18.75 0 0 1 18.71 18.79ZM1728.25 1760.72v184.48a18.76 18.76 0 0 1-18.71 18.8h-164.35a18.76 18.76 0 0 1-18.71-18.8v-184.48a18.75 18.75 0 0 1 18.71-18.79h164.35a18.75 18.75 0 0 1 18.71 18.79ZM1965.33 1760.72v184.48a18.76 18.76 0 0 1-18.71 18.8h-164.35a18.76 18.76 0 0 1-18.71-18.8v-184.48a18.75 18.75 0 0 1 18.71-18.79h164.35a18.75 18.75 0 0 1 18.71 18.79Z"/><path fill="#cedbee" d="M1101.48 1874.64v-132.71H1071a18.75 18.75 0 0 0-18.71 18.8v184.47A18.76 18.76 0 0 0 1071 1964h164.35a18.77 18.77 0 0 0 18.72-18.81v-51.76H1120.2a18.75 18.75 0 0 1-18.72-18.79ZM1338.56 1874.64v-132.71h-30.45a18.56 18.56 0 0 0-4.86.64 18.79 18.79 0 0 0-13.85 18.16v184.47a18.76 18.76 0 0 0 18.71 18.81h164.35a18.76 18.76 0 0 0 18.71-18.81v-51.76h-133.9a18.75 18.75 0 0 1-18.71-18.8ZM1575.64 1874.64v-132.71h-30.45a18.56 18.56 0 0 0-4.86.64 18.79 18.79 0 0 0-13.85 18.16v184.47a18.76 18.76 0 0 0 18.71 18.81h164.35a18.76 18.76 0 0 0 18.71-18.81v-51.76h-133.91a18.75 18.75 0 0 1-18.7-18.8ZM1831.42 1893.44a18.75 18.75 0 0 1-18.7-18.8v-132.71h-30.45a18.56 18.56 0 0 0-4.86.64 18.79 18.79 0 0 0-13.85 18.16v184.47a18.76 18.76 0 0 0 18.71 18.81h164.35a18.76 18.76 0 0 0 18.71-18.81v-51.76Z"/><rect width="913" height="30.21" x="1052.32" y="2043.48" fill="#cedbee" rx="11.93"/><rect width="913" height="110.17" x="1052.32" y="2098.57" fill="#cedbee" rx="12.75"/><rect width="696.38" height="73.87" x="1155.1" y="886.48" fill="#cedbee" rx="22.01"/><rect width="67.45" height="10.14" x="1060.5" y="892.65" fill="#cedbee" rx="2.57"/><rect width="67.45" height="10.14" x="1060.5" y="916.2" fill="#cedbee" rx="2.57"/><rect width="67.45" height="10.14" x="1060.5" y="939.75" fill="#cedbee" rx="2.57"/><path fill="#cedbee" d="M1938.46 892.72a34.73 34.73 0 1 0-4.58 53 1.08 1.08 0 0 0 .18.2l12 12.06a6.46 6.46 0 0 0 9.13 0 6.46 6.46 0 0 0 0-9.13l-12.06-12a4.26 4.26 0 0 0-.32-.3 34.74 34.74 0 0 0-4.35-43.83Zm-7.18 41.92a24.55 24.55 0 1 1 0-34.72 24.56 24.56 0 0 1 0 34.72Z"/><path fill="#aec6d3" d="M2092.17 555.63H933.83l3.2-4.69c.22-.32 22.62-33.17 47.77-65.58 51.67-66.6 64.45-66.6 68.65-66.6h912.62a9 9 0 0 1 6.66 3Zm-1146.95-6h1133.56l-110.53-123.89a2.93 2.93 0 0 0-2.18-1h-912.62c-4.22 0-18.9 6.26-63.89 64.26-19.46 25.09-37.26 50.42-44.34 60.63Z"/><path fill="#aec6d3" d="M1130.8 772.28a3 3 0 0 1-3-3V551.94l64.2-131.5a3 3 0 1 1 5.39 2.64l-63.6 130.25v215.95a3 3 0 0 1-2.99 3ZM1703.61 778.84a3 3 0 0 1-3-3V553.06l-38-130.46a3 3 0 1 1 5.76-1.68l38.27 131.28v223.64a3 3 0 0 1-3.03 3ZM1894.18 752.31a3 3 0 0 1-3-3V553.38l-69-130.21a3 3 0 0 1 5.3-2.82l69.74 131.54v197.42a3 3 0 0 1-3.04 3ZM1321.74 772.28a3 3 0 0 1-3-3v-217l15.42-130.87a3 3 0 1 1 6 .7l-15.4 130.7v216.47a3 3 0 0 1-3.02 3ZM1512.67 783.18a3 3 0 0 1-3-3V421.76a3 3 0 0 1 6 0v358.42a3 3 0 0 1-3 3Z"/><path fill="#aec6d3" d="M1072.75 832.43h-75.19a61.12 61.12 0 0 1-61-61v-218.8a3 3 0 1 1 6 0v218.75a55.11 55.11 0 0 0 55 55h75.19a55.11 55.11 0 0 0 55-55v-2.1a3 3 0 0 1 6 0v2.1a61.12 61.12 0 0 1-61 61.05Z"/><path fill="#aec6d3" d="M1263.69 832.43h-75.2a61.12 61.12 0 0 1-61-61v-218.8a3 3 0 0 1 6 0v218.75a55.12 55.12 0 0 0 55 55h75.2a55.12 55.12 0 0 0 55-55v-2.1a3 3 0 0 1 6 0v2.1a61.12 61.12 0 0 1-61 61.05Z"/><path fill="#aec6d3" d="M1454.62 832.43h-75.19a61.12 61.12 0 0 1-61-61v-218.8a3 3 0 0 1 6 0v218.75a55.11 55.11 0 0 0 55 55h75.19a55.11 55.11 0 0 0 55.05-55v-2.1a3 3 0 1 1 6 0v2.1a61.12 61.12 0 0 1-61.05 61.05Z"/><path fill="#aec6d3" d="M1645.56 832.43h-75.19a61.12 61.12 0 0 1-61-61v-218.8a3 3 0 1 1 6 0v218.75a55.11 55.11 0 0 0 55 55h75.19a55.12 55.12 0 0 0 55-55v-2.1a3 3 0 0 1 6 0v2.1a61.12 61.12 0 0 1-61 61.05Z"/><path fill="#aec6d3" d="M1836.5 832.43h-75.2a61.12 61.12 0 0 1-61-61v-218.8a3 3 0 0 1 6 0v218.75a55.12 55.12 0 0 0 55 55h75.2a55.11 55.11 0 0 0 55-55v-2.1a3 3 0 1 1 6 0v2.1a61.11 61.11 0 0 1-61 61.05Z"/><path fill="#aec6d3" d="M1989.83 832.42a98.76 98.76 0 0 1-98.65-98.65V552.63a3 3 0 1 1 6 0v181.14a92.65 92.65 0 1 0 185.29 0V552.63a3 3 0 0 1 6 0v181.14a98.75 98.75 0 0 1-98.64 98.65ZM1235.39 1967H1071a21.78 21.78 0 0 1-21.71-21.8v-184.48a21.78 21.78 0 0 1 21.71-21.79h164.36a21.77 21.77 0 0 1 21.7 21.79v184.48a21.77 21.77 0 0 1-21.67 21.8ZM1071 1744.93a15.77 15.77 0 0 0-15.71 15.79v184.48A15.78 15.78 0 0 0 1071 1961h164.36a15.77 15.77 0 0 0 15.7-15.8v-184.48a15.76 15.76 0 0 0-15.7-15.79ZM1472.46 1967h-164.35a21.78 21.78 0 0 1-21.71-21.8v-184.48a21.78 21.78 0 0 1 21.71-21.79h164.35a21.78 21.78 0 0 1 21.71 21.79v184.48a21.78 21.78 0 0 1-21.71 21.8Zm-164.35-222.07a15.77 15.77 0 0 0-15.71 15.79v184.48a15.78 15.78 0 0 0 15.71 15.8h164.35a15.77 15.77 0 0 0 15.71-15.8v-184.48a15.76 15.76 0 0 0-15.71-15.79ZM1709.54 1967h-164.35a21.78 21.78 0 0 1-21.71-21.8v-184.48a21.78 21.78 0 0 1 21.71-21.79h164.35a21.78 21.78 0 0 1 21.71 21.79v184.48a21.78 21.78 0 0 1-21.71 21.8Zm-164.35-222.07a15.77 15.77 0 0 0-15.71 15.79v184.48a15.78 15.78 0 0 0 15.71 15.8h164.35a15.78 15.78 0 0 0 15.71-15.8v-184.48a15.77 15.77 0 0 0-15.71-15.79ZM1946.62 1967h-164.35a21.78 21.78 0 0 1-21.71-21.8v-184.48a21.78 21.78 0 0 1 21.71-21.79h164.35a21.78 21.78 0 0 1 21.71 21.79v184.48a21.78 21.78 0 0 1-21.71 21.8Zm-164.35-222.07a15.77 15.77 0 0 0-15.71 15.79v184.48a15.78 15.78 0 0 0 15.71 15.8h164.35a15.78 15.78 0 0 0 15.71-15.8v-184.48a15.77 15.77 0 0 0-15.71-15.79ZM1016.75 1857.47a4.51 4.51 0 0 1-4.5-4.5V829.43a4.5 4.5 0 1 1 9 0V1853a4.5 4.5 0 0 1-4.5 4.47Z"/><path fill="#aec6d3" d="M2006.62 1572.83a4.49 4.49 0 0 1-4.5-4.5v-738.9a4.5 4.5 0 1 1 9 0v738.9a4.5 4.5 0 0 1-4.5 4.5ZM2010 2196.44a4.51 4.51 0 0 1-4.5-4.5v-527.73a4.5 4.5 0 0 1 9 0v527.73a4.5 4.5 0 0 1-4.5 4.5ZM1864.44 2213.24h-770.21a4.5 4.5 0 0 1 0-9h770.21a4.5 4.5 0 0 1 0 9ZM1836.56 2382.63h-699.51a4.5 4.5 0 0 1 0-9h699.51a4.5 4.5 0 1 1 0 9Z"/><path fill="#ffb2a8" d="M2122.25 1447.68s-21.64 15.28-42.55 29.62c-18.5 12.68-36.44 24.63-38.35 24.63-4.07 0-21.88-9.66-42.74-33.58s-63.6-121.6-67.67-127.45-30.87-26.89-32.5-29.94.44-8.65.44-8.65a17.3 17.3 0 0 1 0-7.63c1-3.39 6.79-4.07 6.79-4.07v-3c0-3.06 7.8-5.09 7.8-5.09l-.17-2.55c-.17-2.54 8-4.4 8-5.93s-6.61-16.79-10.17-22.89-7.64-13.74-5.6-19.34 35.11 34.09 37.14 41.72 10.69 49.36 14.76 54.44 12.21 11.2 29 29.51 53.93 64.11 58.51 64.62c2.3.26 11.26-6.8 19.63-13.88s16-14.1 16-14.1Z"/><path fill="#f27c85" d="M2122.25 1447.68s-21.64 15.28-42.55 29.62c-6.19-20.24-11.49-47.57-15.16-69.13 8.29-7 16-14.1 16-14.1Z"/><path fill="#fccd89" d="M2161.76 1339s-35.44 12.38-42.57 17-51.39 41.21-49.35 45.28 37.65 60 37.65 60 61.75-125 54.27-122.28Z"/><path fill="#273657" d="M2304.39 1134.22s27.48-50.37 58.52-26 50.87 68 25.43 94.06-58 10.76-75.3-11.63-14.24-53.88-8.65-56.43Z"/><path fill="#273657" d="M2243.85 1124.05s50.88-34.09 94.12 14.24 11.71 110.41-2.54 128.73-36.63 30-50.88 23.4-93.87-47.85-93.87-47.85-16.54-18.29-15.52-54.92 27.47-81.41 68.69-63.6Z"/><path fill="#ffb2a8" d="M2198.56 1192.73s-13.73 60-6.1 79.38 32.05 20.35 32.05 20.35-6.61 35.1-11.19 37.14-17 3.05-17 3.05S2163.46 1354 2168 1382s25.44 79.15 72.25 65 75.3-41.61 75.3-41.61V1353a39 39 0 0 1-21.88-20.35c-7.12-15.77-6.11-35.61-6.11-42.23s9.16-18.82 12.21-19.33 16.79-6.62 15.78-17.3-1-16.79-7.13-20.86-16.28 8.14-20.35 5.6-21.37-22.39-34.6-45.8-11.89-27-11.89-27-35.38 23.95-43.02 27Z"/><path fill="#f27c85" d="M2224.51 1292.46s8.14 2.54 21 0 15.5-5.6 15.5-5.6-30.42 37-32.8 36-3.7-30.4-3.7-30.4Z"/><path fill="#343468" d="M2068.31 2414.52s.21.8.54 2.22c2 8.58 8.56 39.68 2 51.9-7.64 14.25-132.29 12.72-135.85 4.58s-2.55-28.49 26.46-35.1 65.63-14.76 65.63-14.76ZM2407.54 2468.64c-7.64 14.25-132.29 12.72-135.85 4.58s-2.55-28.49 26.46-35.1c16-3.66 34.33-7.77 47.55-10.73l12.12-13.19 44.39-20.28 5.35 32.57c.48 2.61 1 5.51 1.39 8.54v.16c1.72 11.99 2.51 26.12-1.41 33.45Z"/><path fill="#2c4fa0" d="M2401.57 2400c-3.05 8.14-36.63 16.28-43.75 14.24-3.35-.95-6.92-10.46-12.2-27.46-6-19.15-14.08-47.82-26.47-84.47-23.41-69.2-79.37-182.15-86.5-189.27-6.36-6.36-33.79-173.26-39.61-209v-.07c-.69-4.25-1.08-6.63-1.08-6.63s-.09.19-.25.56c-4.91 10.76-79.09 173.85-78.1 185.66 1 12.21 3.05 33.58 0 100.74s-38.67 238.11-44.78 239.13-31.54 1-41.72 0c-2.16-.21-3.4-14.73-4-37.59-2.3-84.83 4-284.53 4-294.14 0-12.22 3.05-56 9.16-88.53 5.33-28.46 47-224.17 57.46-273.06 1.51-7.07 2.36-11.07 2.36-11.07s221-61.85 252.24 15.48-17 347-17 362.26 5.09 23.41 36.63 88.53 36.67 206.51 33.61 214.69Z"/><g opacity=".58"><path fill="#273657" d="M2023.08 2385.77c18.23-6.63 33.83-15.2 35.64-25.45 4.57-26 30.51-253.37 25.94-268.63s6.89-32.06 11.08-39.69 86.6-196.89 86.6-196.89l9.36 42.72c-4.91 10.76-79.09 173.85-78.1 185.66 1 12.21 3.05 33.58 0 100.74s-38.67 238.11-44.78 239.13-31.54 1-41.72 0c-2.16-.21-3.4-14.73-4.02-37.59Z"/><path fill="#273657" d="M2401.57 2400c-3.05 8.14-36.63 16.28-43.75 14.24-3.35-.95-6.92-10.46-12.2-27.46 12.76-5.61 22.6-12.39 24.46-20.31 6.1-25.95-62.58-247.27-62.58-264.06s18.31-341.41 18.31-341.41-116 22.4-135.83 20.87c-11.19-.86-57.74-28.16-96.26-51.81 1.51-7.07 2.36-11.07 2.36-11.07s221-61.85 252.24 15.48-17 347-17 362.26 5.09 23.41 36.63 88.53 36.68 206.56 33.62 214.74Z"/></g><path fill="#fccd89" d="M2426.33 1509.23c-.67 4.74-14.24 10.85-35.95 13.56a112.06 112.06 0 0 0-14 2.82c-19.45 5-40.29 14.15-40.29 14.15s-4.09 44.09-8.09 73.24c-.77 5.55-.52 13.09.41 21.71 3.93 36.71 19.94 93.13 19.94 99.72 0 8.14-106.51 27.81-146.53 26.46s-102.47-31.89-105.82-37.3c-2.45-3.9 15.91-61 27.28-98.75 4.41-14.6 7.77-26.28 8.47-30.82 1.77-11.47-10.67-48.6-20.28-79.17-4-12.8-7.56-24.44-9.36-32.59-6.11-27.65 59.69-143.31 59.69-143.31 3.54-6.32 51.56-9.35 51.56-9.35s-63.09 60.22 2.72 77.19 84-67.89 84-67.89 53.75 8.87 65.28 24.47 61.64 141.11 60.97 145.86Z"/><path fill="#f28c70" d="M2328 1613c-.77 5.55-.52 13.09.41 21.71h-28.9s13.56-48.85 8.14-51.56-149.93-.67-157.39-.67-27 42.37-27 42.37c4.41-14.6 7.77-26.28 8.47-30.82 1.77-11.47-10.67-48.6-20.28-79.17 10.46 4.94 36.28 16.52 51.69 18.12 19.67 2 143.14-10.18 146.53-16.28s10.15-69 10.15-69l52.26 34.58 4.34 43.35c-19.45 5-40.29 14.15-40.29 14.15s-4.13 44.07-8.13 73.22Z" opacity=".56"/><path fill="#fccd89" d="M2433.8 1511.94c0 1.46-2.29 3.34-6.17 5.44-12.78 6.94-42.74 16.26-64.3 21-11.16 2.46-20.06 3.7-23.15 2.74-10.86-3.36-18.31-82.12-21-97.72s7.46-41.38 7.46-41.38c5.06-16 24.42-40.71 38.67-38.67s68.49 139.77 68.49 148.59Z"/><path fill="#273657" d="m2234.55 1667.9 7.89-92.1a8.18 8.18 0 0 1 8.14-7.47h46.5a8.17 8.17 0 0 1 8 9.68l-18.77 99.23a8.16 8.16 0 0 1-9.63 6.49l-35.63-7.12a8.17 8.17 0 0 1-6.5-8.71Z"/><path fill="#ffb2a8" d="M2445 1649c-4.41 7.46-39 22.06-65.12 21s-60-7.81-70.56-7.47-41.6 10.52-48.28 10.52-29.73-4.75-32.11-7.12 0-7.13 0-7.13-3.05-2.71-3.05-5.43 3.73-5.76 3.73-5.76-5.42-.35-3.73-5.09 7.8-7.8 7.8-7.8-7.8-.34-5.42-5.09 8.14-5.77 8.14-5.77 1.35-9.49 3.39-10.51 25.77-3.74 29.51-2.37 22.42 14.93 27.47 14.92 35.28-7.46 50.2-10.18 40.7-6.44 40.37-8.81c-.23-1.56-7.91-20.81-14.85-40.21-3.66-10.27-7.12-20.56-9.15-28.31 21.56-4.76 51.52-14.08 64.3-21 1 3.8 2.1 7.89 3.22 12.15 7.35 28.11 16.22 64 17.2 77 1.68 22.76 1.34 34.98-3.06 42.46Z"/><path fill="#f27c85" d="M2430.85 1529.53c-11.61 13.51-25.79 26.33-41 31.93a149.24 149.24 0 0 1-17.39 5.25c-3.66-10.27-7.12-20.56-9.15-28.31 21.56-4.76 51.52-14.08 64.3-21 1.04 3.78 2.12 7.87 3.24 12.13ZM2256.91 1628.62a1.33 1.33 0 0 1-.34 0l-4.91-1.7c-4.72-1.63-15.2-2-15.3-2a1 1 0 0 1 0-2c.44 0 10.89.37 15.9 2.1l4.92 1.69a1 1 0 0 1 .63 1.3 1 1 0 0 1-.9.61ZM2253.52 1639.14a1 1 0 0 1-.24 0l-8-1.86c-7.67-1.8-12.42-1-12.47-1a1 1 0 1 1-.37-2c.21 0 5.22-.93 13.31 1l8 1.87a1 1 0 0 1-.23 2ZM2229.6 1648.64a1 1 0 0 1-.12-2 115.74 115.74 0 0 1 13.64-.86 44.6 44.6 0 0 1 8.08.88 1 1 0 0 1-.46 2 43.74 43.74 0 0 0-7.69-.82 117.32 117.32 0 0 0-13.33.84ZM2242.92 1661a128.39 128.39 0 0 1-14.14-1.21 1 1 0 1 1 .28-2c.1 0 9.61 1.33 14.82 1.17a1 1 0 0 1 .07 2c-.33.04-.68.04-1.03.04ZM2211.46 1224.52c-.06 1.37.17 2.36-.51 3.59s-1.48 1.5-2.8 2.16-3.79 1.27-4.68 2.66c-1.56 2.43 2.14 6 3.67 7.43s3.59-.8 2.16-2.15a28.63 28.63 0 0 1-2.15-2.39c-1-1.2-1.37-.74-.11-1.61 1.6-1.11 3.66-1.53 5.26-2.67 2.53-1.8 2.09-4.22 2.21-7 .08-2-3-2-3.05 0ZM2207.37 1261.42c8.09.74 16.29.13 22.48-5.67 1.43-1.35-.73-3.51-2.16-2.16-5.58 5.23-13.1 5.44-20.32 4.78-2-.18-1.94 2.87 0 3.05Z"/><ellipse cx="2202.46" cy="1217.42" fill="#273657" rx="4.7" ry="2.76" transform="rotate(-83.81 2202.42 1217.43)"/><ellipse cx="2233.58" cy="1223.04" fill="#273657" rx="5.77" ry="3.95" transform="rotate(-83.81 2233.546 1223.053)"/><path fill="#273657" d="M2232.17 1210.28c2.29-1.47 6.36.86 8 2.38 1.45 1.32 3.62-.84 2.16-2.16-2.71-2.46-8.19-5.13-11.73-2.85-1.64 1.06-.11 3.7 1.54 2.63ZM2201.65 1209.73a6.06 6.06 0 0 1 5.31-1.53c1.92.38 2.74-2.57.81-3a9.28 9.28 0 0 0-8.28 2.32c-1.44 1.34.72 3.49 2.16 2.16Z"/><path fill="#343468" d="M529.24 2357.56s-27.42 53.45-22.53 64.56 121.15 48 125.48 41.81 3.17-28.41-15.52-42-51.24-46.77-51.24-46.77ZM844.63 2399.44s-14.52 58.92-7.26 68.44 128.44 15.48 131.23 8.34-3.35-28.4-24.57-36.82-60.31-32.22-60.31-32.22Z"/><path fill="#2c4fa0" d="M917.23 2065.56c0 19-29 333.29-33.51 341.62-3.42 6.37-23.12 3.7-34.22 1.56-3.44-.67-6-1.28-7.11-1.56-4.46-1.19-8.93-46.42-16.75-130.94s0-175 0-188.07-11.17-34.52-22.34-89.27-23.45-173.79-23.45-173.79-31.28 252.35-41.33 276.16-160.84 285.67-172 290.43c-7.55 3.22-20.2-7.7-28.64-16.21-4.06-4.09-7.14-7.63-8.22-8.78-3.35-3.57 7.82-35.71 31.27-97.61s67-182.12 71.48-191.64-17.31-238.66-6.7-298.17 32.09-83.35 32.09-83.35l63.17 6.73 188.44 20.08s7.82 323.76 7.82 342.81Z"/><path fill="#273657" d="m657.8 1695.94 63.17 6.73c-19.13 27-43.85 65.77-51.7 95.07-13.4 50-14.52 220.2-15.64 238.06s10.06 38.09-3.35 57.13c-11 15.72-86.39 213.77-112.4 282.56-4.06-4.09-7.14-7.63-8.22-8.78-3.35-3.57 7.82-35.71 31.27-97.61s67-182.12 71.48-191.64-17.31-238.66-6.7-298.17 32.09-83.35 32.09-83.35ZM849.5 2408.74c-3.44-.67-6-1.28-7.11-1.56-4.46-1.19-8.93-46.42-16.75-130.94s0-175 0-188.07-11.17-34.52-22.34-89.27-23.45-173.79-23.45-173.79l4.59-33.92s31.15 191 45.67 224.37 19 56 15.63 63.09c-2.96 6.35-.68 240.08 3.76 330.09ZM817.72 1126.59s51.48-75.65-3.62-95-87.79 8.2-117.24 34.26-25.16 85.63-25.16 85.63-31.84 6.7-20.67 44.67 49.89 66.27 77.44 59.2 89.25-128.76 89.25-128.76Z"/><path fill="#ffb2a8" d="M833.83 1369.6c-19.73 9.72-43.93 30.94-68.87 9.35s-36.49-65.9-36.49-65.9 9.3-8.93 11.92-19.74-11.92-38-11.92-38 7.45-3.72 8.19-11.54-8.19-14.86-8.19-14.86-16 3.31-23.83-3.39-12.64-24.52 0-30.52 19.36 4.83 20.85 6.7 4.09 1.86 7.08.37-9.69-40.21-7.08-43.18 48-7.82 71.48-23.46a65.53 65.53 0 0 0 14.17-12.78 3 3 0 0 1 5 .59c10.4 21.31 26.78 61.23 20.13 90.19-9.49 41.32-27.92 43-27.92 43s-2.79 42.72-2 45 4 2 4 2 43.21 56.45 23.48 66.17Z"/><path fill="#f27c85" d="M808.33 1256.46s-14.8 8.93-26.81 8.93S757 1259 757 1259s31.83 33.51 36 31.83 15.33-34.37 15.33-34.37Z"/><path fill="#ffb2a8" d="M1036 1344.37s19.51-46 22.85-52.55 25.09-55.93 26.76-52.81 3.06 11.19 3.06 18.21-14.49 35.38-13.1 37.2 7.25 1.56 7.53 6-.84 6.5-.84 6.5 2.23-5.72 8.92-3.38c4.8 1.67 4.58 6.69 4.07 9.4a3.38 3.38 0 0 0 1 3.07c1.59 1.51 4 4 4.14 5.74.28 2.6-2.23 17.69-14.21 25.23a61.83 61.83 0 0 0-16.66 15.51 3.32 3.32 0 0 1-3.67 1.23c-8.01-2.42-33.46-10.86-29.85-19.35Z"/><path fill="#6cc58d" d="M1077.9 1364.19c-1.11 6.91-25.23 52.39-51.61 93.34-23.71 36.81-49.27 69.94-61.58 68.08-26-3.93-78-34.12-90.7-59.06-7.92-15.61-7.59-67.26-6.23-103.72.47-12.7 1.07-23.55 1.48-30.4a3.35 3.35 0 0 1 5.8-2.06c8.45 9.15 26.53 29 51 57.43 17.71 20.58 29.29 31.79 36.54 37.38a34.35 34.35 0 0 0 6.3 4c2.54 1.18 3.85.9 4.27-.08 1.4-3.29 46.41-100.41 56.25-98.44s50.58 20.4 48.48 33.53Z"/><path fill="#3e9a83" d="M999 1485.59a3.35 3.35 0 0 1 4.94 4.48c-16.07 21.6-30.77 36.83-39.23 35.55-26-3.93-78-34.12-90.7-59.06-7.64-15.07-7.6-63.74-6.37-99.9a3.35 3.35 0 0 1 3.94-3.18q6.52 1.17 13.79 2.94a3.36 3.36 0 0 1 2.14 1.63c4.09 7.36 24.62 45.22 32.2 77 8.44 35.33 14.06 51.58 20.39 49.69 5.32-1.6 17.62-49.75 21.37-65a3.35 3.35 0 0 1 5.07-2 3.35 3.35 0 0 1 1.29 4.07c-4.82 11.92-24.09 61.94-13 73.48 8.05 8.31 26.58-3.82 44.17-19.7Z"/><path fill="#6cc58d" d="M915 1575.89c-1.61 84.17-2.63 120-3.91 135.2-.5 6-1.05 8.74-1.67 10-2.24 4.47-99.41 16.76-158.6 13.41s-89.36-26.81-92.71-35.75 21.22-69.24 23.46-120.62c.52-12.19-.26-32.47-1.77-56.33-.34-5.41-.72-11-1.14-16.76q-.36-5.1-.77-10.31c-1.1-14.75-2.39-30.13-3.72-45.29-.81-9.19-1.64-18.31-2.46-27.16-.9-9.48-1.77-18.66-2.62-27.31-1.76-18.07-3.37-33.8-4.54-45.12-1.21-11.61-2-18.56-2-18.56l65.9-18.24s23.82 40.21 58.08 44.68 43.19-14.15 34.25-32.77-10.43-21.59-10.43-21.59 58.83 16.3 64 27.51c2.47 5.31 12.26 34.43 21.62 76.09 1.85 8.32 3.71 17.15 5.48 26.37 2.65 13.75 5.11 28.42 7.18 43.71q1.86 13.56 3.28 27.73a615 615 0 0 1 3.09 71.11Z"/><path fill="#3e9a83" d="M911.08 1711.09c-.5 6-1.05 8.74-1.67 10-2.24 4.47-99.41 16.76-158.6 13.41s-89.36-26.81-92.71-35.75 21.22-69.24 23.46-120.62c.52-12.19-.26-32.47-1.77-56.33-.34-5.41-.72-11-1.14-16.76q-.36-5.1-.77-10.31c-1.1-14.75-2.39-30.13-3.72-45.29-.81-9.19-1.64-18.31-2.46-27.16-.9-9.48-1.77-18.66-2.62-27.31 22.95-40.2 38.67-53.08 34-14 0 0 2.3 240.55-6.63 274.7s64 61.69 127.32 63.18a407.59 407.59 0 0 0 87.31-7.76Z" opacity=".6"/><path fill="#3e9a83" d="M901.52 1433.34c-15.35 8.06-37.68 16.81-69.7 24-17.42 3.93-35.86 5.47-54 5.47-40.39 0-79.55-7.58-103.63-13.4-.81-9.19-1.64-18.31-2.46-27.16 29.15 7.53 99 22.53 154.46 10 35.57-8 57.26-17.8 69.88-25.34 1.82 8.38 3.68 17.21 5.45 26.43ZM908.7 1477.05c-13.61 8.37-36.27 18.9-72.49 27.56-55.62 13.32-125-1.13-158.33-9.88q.4 5.2.77 10.31c.42 5.74.8 11.35 1.14 16.76 25.7 6.35 64.87 13.93 105.22 13.93 19.23 0 38.75-1.72 57.17-6.13 31.29-7.5 53.79-16.42 69.8-24.82q-1.4-14.15-3.28-27.73Z" opacity=".78"/><path fill="#3e9a83" d="M703.15 1437.4c-7 31.78-16.61 53.66-24.5 67.64-4-55.42-10.77-123.11-14.11-155.19a313.32 313.32 0 0 1 45.4 1.92s7.36 21.59-6.79 85.63Z"/><path fill="#f27c85" d="M801 1170.93c-.81 3.42.86 5.59 3.52 7.66a73.16 73.16 0 0 1 6.61 5.11c2.49 2.45 1.89 5.08-.63 7.63a1.68 1.68 0 0 0 2.37 2.37c2.41-2.44 4.56-6.67 2.78-10.08-1.85-3.57-12.47-7.35-11.41-11.8.49-2.1-2.74-3-3.24-.89ZM794.44 1223.5c7.36 3 18.07 1.4 24.12-3.73 1.65-1.39-.73-3.75-2.37-2.37-5.11 4.33-14.71 5.42-20.86 2.87-2-.82-2.86 2.42-.89 3.23Z"/><ellipse cx="773.7" cy="1178.73" fill="#273657" rx="4.47" ry="7.36" transform="rotate(-17.11 773.564 1178.58)"/><ellipse cx="819.59" cy="1162.09" fill="#273657" rx="3.87" ry="6.19" transform="rotate(-17.11 819.44 1161.926)"/><path fill="#273657" d="M764.33 1169.39a32.89 32.89 0 0 1 5.76-6.75c1.6-1.44-.77-3.8-2.37-2.37a36.29 36.29 0 0 0-6.28 7.43c-1.16 1.82 1.74 3.51 2.89 1.69ZM811.85 1148.91a12.57 12.57 0 0 1 6.65-.62c2.11.39 3-2.83.89-3.23a15.91 15.91 0 0 0-8.43.62c-2 .73-1.14 4 .89 3.23Z"/><circle cx="774.8" cy="1173.41" r="2.4" fill="#fff"/><circle cx="820.6" cy="1158.66" r="2.4" fill="#fff"/><path fill="#6cc58d" d="M709.48 1357c-6.14 47.47-70.92 136.82-70.92 141.85s12.22 88.23 19.23 109.45 10.92 41.89 4.22 45.24c-.76.38-2 1-3.47 1.78l-.74.38c-9.62 4.91-30.44 15.19-43 16.09-3.78.29-6.81-.27-8.59-2-8.94-8.94-46.91-150.23-44.68-173.13s68.13-151.9 101.08-165.3c0 0 17.67-7.25 31.43-4.27 10.05 2.12 18.04 9.82 15.44 29.91Z"/><path fill="#3e9a83" d="M709.48 1357c-6.14 47.47-70.92 136.82-70.92 141.85s12.22 88.23 19.23 109.45 10.92 41.89 4.22 45.24c-.88.44-2.33 1.19-4.21 2.16-9.26-47.38-25.23-128.54-28.37-139.91-4.47-16.19-17.87-9.12-28.29-11.36s8.94-5.21 20.85-13.4 70.74-106.48 77.44-135.52c2.31-10-.6-19.87-5.43-28.47 10.09 2.17 18.08 9.87 15.48 29.96Z" opacity=".6"/><path fill="#ffb2a8" d="M662 1745.67c-17.31 10-31.83 10-31.83 10s-9.49-33.51-9.49-43.56c0-7.31-3.84-29.05-5.93-40.39 12.6-.9 33.42-11.18 43-16.09l.74-.38c2 5.92 4.92 14.92 4.48 16.55-.66 2.47 26.36 33.05 26.91 38.35s-10.56 25.46-27.88 35.52Z"/><path fill="#dfe9f4" d="M297.61 2487.67c3.3 17.18 14.73 32.56 31.49 44.23 20.06 14 47.76 22.61 78.37 22.61h279a38.17 38.17 0 0 0-3 14.9c0 14.69 8.55 28 22.38 37.63s33 15.58 54.06 15.58h654c42.22 0 76.44-23.83 76.44-53.21a38.17 38.17 0 0 0-3-14.9h190.58a38.35 38.35 0 0 0-3 14.9c0 14.69 8.56 28 22.39 37.63s32.94 15.58 54.06 15.58h654c42.2 0 76.44-23.83 76.44-53.21a38.35 38.35 0 0 0-3-14.9H2581c56.19 0 102.62-29.11 109.86-66.84Z"/><ellipse cx="1966.36" cy="2663.09" fill="#dfe9f4" rx="226.12" ry="17.11"/><ellipse cx="1582.04" cy="2630.36" fill="#dfe9f4" rx="92.78" ry="15.63"/><ellipse cx="956.77" cy="2651.2" fill="#dfe9f4" rx="230.68" ry="20.84"/><rect width="806.9" height="21.77" x="1674.82" y="2554.51" fill="#92b1dd" rx="8.59" transform="rotate(-180 2078.27 2565.395)"/><rect width="806.9" height="21.77" x="682.35" y="2554.51" fill="#92b1dd" rx="8.59" transform="rotate(-180 1085.805 2565.395)"/><rect width="2395.23" height="22.06" x="296.63" y="2476.64" fill="#92b1dd" rx="8.59" transform="rotate(-180 1494.24 2487.675)"/></svg>